<svg width="129" height="129" viewBox="0 0 129 129" fill="none" xmlns="http://www.w3.org/2000/svg">
<g filter="url(#filter0_d_0_3597)">
<circle cx="60.5" cy="60.5" r="24.5" fill="url(#paint0_linear_0_3597)"/>
<circle cx="60.5" cy="60.5" r="23.75" stroke="url(#paint1_linear_0_3597)" stroke-width="1.5"/>
</g>
<g filter="url(#filter1_ddd_0_3597)">
<path d="M63.5832 53.4098L64.3411 54.4085L64.5412 54.2842L63.5832 53.4098ZM63.7834 53.2855L64.5412 54.2842L64.7852 54.1849L63.7834 53.2855ZM63.4228 53.5583L64.1808 54.5569L64.3411 54.4085L63.4228 53.5583ZM64.0276 53.1861L64.7852 54.1849L65.0772 54.1112L64.0276 53.1861ZM63.2982 53.7302L64.0563 54.7287L64.1808 54.5569L63.2982 53.7302ZM64.3197 53.1124L65.0772 54.1112L65.4212 54.0639L64.3197 53.1124ZM63.2054 53.9248L63.9635 54.9232L64.0563 54.7287L63.2054 53.9248ZM64.6639 53.0651L65.4212 54.0639L65.8212 54.0439L64.6639 53.0651ZM63.1402 54.1412L63.8984 55.1395L63.9635 54.9232L63.1402 54.1412ZM65.0641 53.045L65.8212 54.0439L66.2144 54.0384L65.0641 53.045ZM63.0987 54.3788L63.8569 55.3769L63.8984 55.1395L63.0987 54.3788ZM65.4575 53.0395L66.2144 54.0384L66.5975 54.0335L65.4575 53.0395ZM63.0768 54.6367L63.835 55.6347L63.8569 55.3769L63.0768 54.6367ZM68.1071 53.0132L68.8625 54.0121L68.9743 50.1232L68.1071 53.0132ZM65.8409 53.0346L66.5975 54.0335L66.9659 54.0292L65.8409 53.0346ZM63.0704 54.9143L63.8286 55.9121L63.835 55.6347L63.0704 54.9143ZM66.2095 53.0303L66.9659 54.0292L67.315 54.0254L66.2095 53.0303ZM66.5587 53.0265L67.315 54.0254L67.6402 54.0221L66.5587 53.0265ZM66.8841 53.0232L67.6402 54.0221L67.9369 54.0194L66.8841 53.0232ZM67.1811 53.0204L67.9369 54.0194L68.2006 54.0171L67.1811 53.0204ZM67.4449 53.0181L68.2006 54.0171L68.4266 54.0152L67.4449 53.0181ZM67.671 53.0163L68.4266 54.0152L68.6104 54.0138L67.671 53.0163ZM67.8549 53.0149L68.6104 54.0138L68.7474 54.0129L67.8549 53.0149ZM67.992 53.0139L68.7474 54.0129L68.8329 54.0123L67.992 53.0139ZM68.0776 53.0134L68.8329 54.0123L68.8625 54.0121L68.0776 53.0134ZM63.0705 57.9559L63.8287 58.952L63.8286 55.9121L63.0705 57.9559ZM54.5285 62.2452L55.2916 63.2389L58.7908 63.1884L54.5285 62.2452ZM63.0707 62.1218L63.829 63.1156L68.7752 63.0442L63.0707 62.1218ZM68.0197 62.0503L68.7752 63.0442L68.9996 58.8772L68.0197 62.0503ZM68.2191 49.1221L68.1071 53.0132L68.9743 50.1232L68.2191 49.1221ZM63.7834 53.2855L63.5832 53.4098L64.5412 54.2842L63.7834 53.2855ZM63.5832 53.4098L63.4228 53.5583L64.3411 54.4085L63.5832 53.4098ZM64.0276 53.1861L63.7834 53.2855L64.7852 54.1849L64.0276 53.1861ZM63.4228 53.5583L63.2982 53.7302L64.1808 54.5569L63.4228 53.5583ZM64.3197 53.1124L64.0276 53.1861L65.0772 54.1112L64.3197 53.1124ZM63.2982 53.7302L63.2054 53.9248L64.0563 54.7287L63.2982 53.7302ZM64.6639 53.0651L64.3197 53.1124L65.4212 54.0639L64.6639 53.0651ZM63.2054 53.9248L63.1402 54.1412L63.9635 54.9232L63.2054 53.9248ZM65.0641 53.045L64.6639 53.0651L65.8212 54.0439L65.0641 53.045ZM63.1402 54.1412L63.0987 54.3788L63.8984 55.1395L63.1402 54.1412ZM65.4575 53.0395L65.0641 53.045L66.2144 54.0384L65.4575 53.0395ZM63.0987 54.3788L63.0768 54.6367L63.8569 55.3769L63.0987 54.3788ZM65.8409 53.0346L65.4575 53.0395L66.5975 54.0335L65.8409 53.0346ZM63.0768 54.6367L63.0704 54.9143L63.835 55.6347L63.0768 54.6367ZM66.2095 53.0303L65.8409 53.0346L66.9659 54.0292L66.2095 53.0303ZM66.5587 53.0265L66.2095 53.0303L67.315 54.0254L66.5587 53.0265ZM66.8841 53.0232L66.5587 53.0265L67.6402 54.0221L66.8841 53.0232ZM67.1811 53.0204L66.8841 53.0232L67.9369 54.0194L67.1811 53.0204ZM67.4449 53.0181L67.1811 53.0204L68.2006 54.0171L67.4449 53.0181ZM67.671 53.0163L67.4449 53.0181L68.4266 54.0152L67.671 53.0163ZM67.8549 53.0149L67.671 53.0163L68.6104 54.0138L67.8549 53.0149ZM67.992 53.0139L67.8549 53.0149L68.7474 54.0129L67.992 53.0139ZM63.0704 54.9143L63.0705 57.9559L63.8286 55.9121L63.0704 54.9143ZM68.0776 53.0134L67.992 53.0139L68.8329 54.0123L68.0776 53.0134ZM68.1071 53.0132L68.0776 53.0134L68.8625 54.0121L68.1071 53.0132ZM63.0712 73.6949L63.8296 74.6823L63.829 63.1156L63.0712 73.6949ZM58.0293 73.7673L58.7906 74.7546L63.8296 74.6823L58.0293 73.7673ZM58.0296 62.1946L54.5285 62.2452L58.7908 63.1884L58.0296 62.1946ZM68.2443 57.881L68.0197 62.0503L68.9996 58.8772L68.2443 57.881ZM68.0197 62.0503L63.0707 62.1218L68.7752 63.0442L68.0197 62.0503ZM63.0707 62.1218L63.0712 73.6949L63.829 63.1156L63.0707 62.1218ZM63.0712 73.6949L58.0293 73.7673L63.8296 74.6823L63.0712 73.6949ZM62.8244 52.41L63.5832 53.4098L63.7834 53.2855L62.8244 52.41ZM63.0248 52.2856L63.7834 53.2855L64.0276 53.1861L63.0248 52.2856ZM62.6639 52.5586L63.4228 53.5583L63.5832 53.4098L62.6639 52.5586ZM63.2691 52.1861L64.0276 53.1861L64.3197 53.1124L63.2691 52.1861ZM62.5393 52.7306L63.2982 53.7302L63.4228 53.5583L62.5393 52.7306ZM63.5614 52.1124L64.3197 53.1124L64.6639 53.0651L63.5614 52.1124ZM62.4464 52.9252L63.2054 53.9248L63.2982 53.7302L62.4464 52.9252ZM63.9057 52.065L64.6639 53.0651L65.0641 53.045L63.9057 52.065ZM62.3812 53.1418L63.1402 54.1412L63.2054 53.9248L62.3812 53.1418ZM64.3062 52.0449L65.0641 53.045L65.4575 53.0395L64.3062 52.0449ZM62.3396 53.3795L63.0987 54.3788L63.1402 54.1412L62.3396 53.3795ZM64.6998 52.0395L65.4575 53.0395L65.8409 53.0346L64.6998 52.0395ZM62.3177 53.6376L63.0768 54.6367L63.0987 54.3788L62.3177 53.6376ZM67.3509 52.0131L68.1071 53.0132L68.2191 49.1221L67.3509 52.0131ZM65.0834 52.0346L65.8409 53.0346L66.2095 53.0303L65.0834 52.0346ZM62.3113 53.9153L63.0704 54.9143L63.0768 54.6367L62.3113 53.9153ZM65.4522 52.0302L66.2095 53.0303L66.5587 53.0265L65.4522 52.0302ZM65.8017 52.0264L66.5587 53.0265L66.8841 53.0232L65.8017 52.0264ZM66.1272 52.0231L66.8841 53.0232L67.1811 53.0204L66.1272 52.0231ZM66.4243 52.0204L67.1811 53.0204L67.4449 53.0181L66.4243 52.0204ZM66.6883 52.0181L67.4449 53.0181L67.671 53.0163L66.6883 52.0181ZM66.9146 52.0162L67.671 53.0163L67.8549 53.0149L66.9146 52.0162ZM67.0986 52.0148L67.8549 53.0149L67.992 53.0139L67.0986 52.0148ZM67.2357 52.0139L67.992 53.0139L68.0776 53.0134L67.2357 52.0139ZM67.3213 52.0133L68.0776 53.0134L68.1071 53.0132L67.3213 52.0133ZM62.3114 56.9586L63.0705 57.9559L63.0704 54.9143L62.3114 56.9586ZM53.7645 61.2504L54.5285 62.2452L58.0296 62.1946L53.7645 61.2504ZM62.3116 61.1268L63.0707 62.1218L68.0197 62.0503L62.3116 61.1268ZM67.2633 61.0553L68.0197 62.0503L68.2443 57.881L67.2633 61.0553ZM67.463 48.1198L67.3509 52.0131L68.2191 49.1221L67.463 48.1198ZM63.0248 52.2856L62.8244 52.41L63.7834 53.2855L63.0248 52.2856ZM62.8244 52.41L62.6639 52.5586L63.5832 53.4098L62.8244 52.41ZM63.2691 52.1861L63.0248 52.2856L64.0276 53.1861L63.2691 52.1861ZM62.6639 52.5586L62.5393 52.7306L63.4228 53.5583L62.6639 52.5586ZM63.5614 52.1124L63.2691 52.1861L64.3197 53.1124L63.5614 52.1124ZM62.5393 52.7306L62.4464 52.9252L63.2982 53.7302L62.5393 52.7306ZM63.9057 52.065L63.5614 52.1124L64.6639 53.0651L63.9057 52.065ZM62.4464 52.9252L62.3812 53.1418L63.2054 53.9248L62.4464 52.9252ZM64.3062 52.0449L63.9057 52.065L65.0641 53.045L64.3062 52.0449ZM62.3812 53.1418L62.3396 53.3795L63.1402 54.1412L62.3812 53.1418ZM64.6998 52.0395L64.3062 52.0449L65.4575 53.0395L64.6998 52.0395ZM62.3396 53.3795L62.3177 53.6376L63.0987 54.3788L62.3396 53.3795ZM65.0834 52.0346L64.6998 52.0395L65.8409 53.0346L65.0834 52.0346ZM62.3177 53.6376L62.3113 53.9153L63.0768 54.6367L62.3177 53.6376ZM65.4522 52.0302L65.0834 52.0346L66.2095 53.0303L65.4522 52.0302ZM65.8017 52.0264L65.4522 52.0302L66.5587 53.0265L65.8017 52.0264ZM66.1272 52.0231L65.8017 52.0264L66.8841 53.0232L66.1272 52.0231ZM66.4243 52.0204L66.1272 52.0231L67.1811 53.0204L66.4243 52.0204ZM66.6883 52.0181L66.4243 52.0204L67.4449 53.0181L66.6883 52.0181ZM66.9146 52.0162L66.6883 52.0181L67.671 53.0163L66.9146 52.0162ZM67.0986 52.0148L66.9146 52.0162L67.8549 53.0149L67.0986 52.0148ZM67.2357 52.0139L67.0986 52.0148L67.992 53.0139L67.2357 52.0139ZM62.3113 53.9153L62.3114 56.9586L63.0704 54.9143L62.3113 53.9153ZM67.3213 52.0133L67.2357 52.0139L68.0776 53.0134L67.3213 52.0133ZM67.3509 52.0131L67.3213 52.0133L68.1071 53.0132L67.3509 52.0131ZM62.312 72.7064L63.0712 73.6949L63.0707 62.1218L62.312 72.7064ZM57.2672 72.7788L58.0293 73.7673L63.0712 73.6949L57.2672 72.7788ZM57.2676 61.1997L53.7645 61.2504L58.0296 62.1946L57.2676 61.1997ZM67.4881 56.8836L67.2633 61.0553L68.2443 57.881L67.4881 56.8836ZM67.2633 61.0553L62.3116 61.1268L68.0197 62.0503L67.2633 61.0553ZM62.3116 61.1268L62.312 72.7064L63.0707 62.1218L62.3116 61.1268ZM62.312 72.7064L57.2672 72.7788L63.0712 73.6949L62.312 72.7064ZM62.0648 51.409L62.8244 52.41L63.0248 52.2856L62.0648 51.409ZM62.2653 51.2846L63.0248 52.2856L63.2691 52.1861L62.2653 51.2846ZM61.9042 51.5577L62.6639 52.5586L62.8244 52.41L61.9042 51.5577ZM62.5097 51.185L63.2691 52.1861L63.5614 52.1124L62.5097 51.185ZM61.7795 51.7298L62.5393 52.7306L62.6639 52.5586L61.7795 51.7298ZM62.8022 51.1112L63.5614 52.1124L63.9057 52.065L62.8022 51.1112ZM61.6865 51.9246L62.4464 52.9252L62.5393 52.7306L61.6865 51.9246ZM63.1467 51.0639L63.9057 52.065L64.3062 52.0449L63.1467 51.0639ZM61.6213 52.1412L62.3812 53.1418L62.4464 52.9252L61.6213 52.1412ZM63.5474 51.0438L64.3062 52.0449L64.6998 52.0395L63.5474 51.0438ZM61.5797 52.3791L62.3396 53.3795L62.3812 53.1418L61.5797 52.3791ZM63.9413 51.0383L64.6998 52.0395L65.0834 52.0346L63.9413 51.0383ZM61.5578 52.6373L62.3177 53.6376L62.3396 53.3795L61.5578 52.6373ZM66.5938 51.0119L67.3509 52.0131L67.463 48.1198L66.5938 51.0119ZM64.325 51.0334L65.0834 52.0346L65.4522 52.0302L64.325 51.0334ZM61.5514 52.9152L62.3113 53.9153L62.3177 53.6376L61.5514 52.9152ZM64.694 51.029L65.4522 52.0302L65.8017 52.0264L64.694 51.029ZM65.0437 51.0252L65.8017 52.0264L66.1272 52.0231L65.0437 51.0252ZM65.3695 51.0219L66.1272 52.0231L66.4243 52.0204L65.3695 51.0219ZM65.6667 51.0192L66.4243 52.0204L66.6883 52.0181L65.6667 51.0192ZM65.9309 51.0169L66.6883 52.0181L66.9146 52.0162L65.9309 51.0169ZM66.1573 51.015L66.9146 52.0162L67.0986 52.0148L66.1573 51.015ZM66.3414 51.0136L67.0986 52.0148L67.2357 52.0139L66.3414 51.0136ZM66.4786 51.0126L67.2357 52.0139L67.3213 52.0133L66.4786 51.0126ZM66.5643 51.0121L67.3213 52.0133L67.3509 52.0131L66.5643 51.0121ZM61.5514 55.9602L62.3114 56.9586L62.3113 53.9153L61.5514 55.9602ZM52.9996 60.2544L53.7645 61.2504L57.2676 61.1997L52.9996 60.2544ZM61.5515 60.1307L62.3116 61.1268L67.2633 61.0553L61.5515 60.1307ZM66.5061 60.0591L67.2633 61.0553L67.4881 56.8836L66.5061 60.0591ZM66.706 47.1165L66.5938 51.0119L67.463 48.1198L66.706 47.1165ZM62.2653 51.2846L62.0648 51.409L63.0248 52.2856L62.2653 51.2846ZM62.0648 51.409L61.9042 51.5577L62.8244 52.41L62.0648 51.409ZM62.5097 51.185L62.2653 51.2846L63.2691 52.1861L62.5097 51.185ZM61.9042 51.5577L61.7795 51.7298L62.6639 52.5586L61.9042 51.5577ZM62.8022 51.1112L62.5097 51.185L63.5614 52.1124L62.8022 51.1112ZM61.7795 51.7298L61.6865 51.9246L62.5393 52.7306L61.7795 51.7298ZM63.1467 51.0639L62.8022 51.1112L63.9057 52.065L63.1467 51.0639ZM61.6865 51.9246L61.6213 52.1412L62.4464 52.9252L61.6865 51.9246ZM63.5474 51.0438L63.1467 51.0639L64.3062 52.0449L63.5474 51.0438ZM61.6213 52.1412L61.5797 52.3791L62.3812 53.1418L61.6213 52.1412ZM63.9413 51.0383L63.5474 51.0438L64.6998 52.0395L63.9413 51.0383ZM61.5797 52.3791L61.5578 52.6373L62.3396 53.3795L61.5797 52.3791ZM64.325 51.0334L63.9413 51.0383L65.0834 52.0346L64.325 51.0334ZM61.5578 52.6373L61.5514 52.9152L62.3177 53.6376L61.5578 52.6373ZM64.694 51.029L64.325 51.0334L65.4522 52.0302L64.694 51.029ZM65.0437 51.0252L64.694 51.029L65.8017 52.0264L65.0437 51.0252ZM65.3695 51.0219L65.0437 51.0252L66.1272 52.0231L65.3695 51.0219ZM65.6667 51.0192L65.3695 51.0219L66.4243 52.0204L65.6667 51.0192ZM65.9309 51.0169L65.6667 51.0192L66.6883 52.0181L65.9309 51.0169ZM66.1573 51.015L65.9309 51.0169L66.9146 52.0162L66.1573 51.015ZM66.3414 51.0136L66.1573 51.015L67.0986 52.0148L66.3414 51.0136ZM66.4786 51.0126L66.3414 51.0136L67.2357 52.0139L66.4786 51.0126ZM61.5514 52.9152L61.5514 55.9602L62.3113 53.9153L61.5514 52.9152ZM66.5643 51.0121L66.4786 51.0126L67.3213 52.0133L66.5643 51.0121ZM66.5938 51.0119L66.5643 51.0121L67.3509 52.0131L66.5938 51.0119ZM61.5518 71.7168L62.312 72.7064L62.3116 61.1268L61.5518 71.7168ZM56.5042 71.7893L57.2672 72.7788L62.312 72.7064L56.5042 71.7893ZM56.5048 60.2037L52.9996 60.2544L57.2676 61.1997L56.5048 60.2037Z" fill="#7895DE"/>
<path d="M60.2639 47.4938L59.4516 47.8303L58.743 48.2398L60.2639 47.4938ZM58.743 48.2398L58.136 48.7142L57.6284 49.2455L58.743 48.2398ZM62.2086 47.0724L60.2639 47.4938L58.743 48.2398L62.2086 47.0724Z" fill="#E4E9FF"/>
<path d="M66.7307 55.8851L66.5057 60.0592L67.4877 56.8836L66.7307 55.8851Z" fill="#7895DE"/>
<path d="M58.7431 48.2398L57.6285 49.2456L56.9027 50.4464L58.7431 48.2398ZM62.2087 47.0724L61.1823 47.2385L60.264 47.4938L62.2087 47.0724ZM57.6285 49.2456L57.2181 49.8257L56.9027 50.4464L57.6285 49.2456ZM64.6853 47.0094L62.2087 47.0724L58.7431 48.2398L64.6853 47.0094ZM63.8173 47L63.3455 47.0037L62.2087 47.0724L63.8173 47ZM64.6853 47.0094L63.8173 47L62.2087 47.0724L64.6853 47.0094ZM56.9027 50.4464L56.6801 51.0997L56.5481 51.7775L56.9027 50.4464ZM64.6853 47.0094L64.265 47.0023L63.8173 47L64.6853 47.0094Z" fill="#E4E9FF"/>
<path d="M66.5057 60.0592L61.5511 60.1308L67.2629 61.0554L66.5057 60.0592Z" fill="#7895DE"/>
<path d="M65.4313 47.0341L65.0754 47.0204L64.6857 47.0094L65.4313 47.0341ZM58.7435 48.2398L56.903 50.4463L56.5048 56.0333L58.7435 48.2398ZM66.0288 47.0655L65.4313 47.0341L64.6857 47.0094L66.0288 47.0655ZM64.6857 47.0094L58.7435 48.2398L56.5048 56.0333L64.6857 47.0094ZM66.0288 47.0655L65.7502 47.0495L65.4313 47.0341L66.0288 47.0655ZM66.6766 47.1137L66.0288 47.0655L64.6857 47.0094L66.6766 47.1137ZM56.903 50.4463L56.5485 51.7775L56.5048 56.0333L56.903 50.4463ZM66.4524 47.0949L66.2639 47.081L66.0288 47.0655L66.4524 47.0949ZM66.6766 47.1137L66.4524 47.0949L66.0288 47.0655L66.6766 47.1137ZM66.6766 47.1137L66.5911 47.1062L66.4524 47.0949L66.6766 47.1137ZM56.5485 51.7775L56.5049 52.4716L56.5048 56.0333L56.5485 51.7775Z" fill="#E4E9FF"/>
<path d="M61.5511 60.1307L61.5514 71.7168L62.3111 61.1268L61.5511 60.1307Z" fill="#7895DE"/>
<path d="M64.6859 47.0092L62.0648 51.4088L62.2653 51.2843L64.6859 47.0092ZM64.6859 47.0092L62.2653 51.2843L62.5097 51.1848L64.6859 47.0092ZM64.6859 47.0092L62.5097 51.1848L62.8022 51.111L64.6859 47.0092ZM62.8022 51.111L63.1467 51.0636L64.6859 47.0092L62.8022 51.111ZM66.4786 51.0124L66.6768 47.1135L64.6859 47.0092L66.4786 51.0124ZM63.1467 51.0636L63.5474 51.0435L64.6859 47.0092L63.1467 51.0636ZM63.5474 51.0435L63.9413 51.038L64.6859 47.0092L63.5474 51.0435ZM64.6859 47.0092L56.505 56.0331L62.0648 51.4088L64.6859 47.0092ZM63.9413 51.038L64.325 51.0331L64.6859 47.0092L63.9413 51.038ZM66.5938 51.0116L66.706 47.1162L66.6768 47.1135L66.5938 51.0116ZM64.325 51.0331L64.694 51.0288L64.6859 47.0092L64.325 51.0331ZM64.694 51.0288L65.0437 51.025L64.6859 47.0092L64.694 51.0288ZM65.0437 51.025L65.3695 51.0217L64.6859 47.0092L65.0437 51.025ZM65.3695 51.0217L65.6667 51.0189L64.6859 47.0092L65.3695 51.0217ZM65.6667 51.0189L65.9309 51.0166L64.6859 47.0092L65.6667 51.0189ZM65.9309 51.0166L66.1573 51.0148L64.6859 47.0092L65.9309 51.0166ZM66.1573 51.0148L66.3414 51.0134L64.6859 47.0092L66.1573 51.0148ZM56.505 56.0331L61.9042 51.5575L62.0648 51.4088L56.505 56.0331ZM66.3414 51.0134L66.4786 51.0124L64.6859 47.0092L66.3414 51.0134ZM56.505 56.0331L61.7795 51.7296L61.9042 51.5575L56.505 56.0331ZM56.505 56.0331L61.6865 51.9243L61.7795 51.7296L56.505 56.0331ZM56.505 56.0331L61.6213 52.141L61.6865 51.9243L56.505 56.0331ZM56.505 56.0331L61.5797 52.3788L61.6213 52.141L56.505 56.0331ZM66.4786 51.0124L66.5643 51.0118L66.6768 47.1135L66.4786 51.0124ZM56.505 56.0331L61.5578 52.6371L61.5797 52.3788L56.505 56.0331ZM66.5643 51.0118L66.5938 51.0116L66.6768 47.1135L66.5643 51.0118ZM56.505 56.0331L61.5514 52.9149L61.5578 52.6371L56.505 56.0331ZM56.505 56.0331L53 56.0839L56.5048 60.2035L56.505 56.0331ZM56.505 56.0331L61.5514 55.9599L61.5514 52.9149L56.505 56.0331ZM53 56.0839L52.9996 60.2542L56.5048 60.2035L53 56.0839ZM56.505 56.0331L61.5515 60.1305L61.5514 55.9599L56.505 56.0331ZM56.505 56.0331L56.5048 60.2035L61.5515 60.1305L56.505 56.0331Z" fill="#E4E9FF"/>
<path d="M61.5513 71.7168L56.5037 71.7893L62.3115 72.7064L61.5513 71.7168Z" fill="#7895DE"/>
<path d="M66.5056 60.0592L66.7306 55.8851L61.551 55.9602L66.5056 60.0592ZM61.5511 60.1308L66.5056 60.0592L61.551 55.9602L61.5511 60.1308ZM56.5043 60.2038L61.5513 71.7168L61.5511 60.1308L56.5043 60.2038ZM56.5043 60.2038L56.5037 71.7893L61.5513 71.7168L56.5043 60.2038Z" fill="#E4E9FF"/>
</g>
<mask id="mask0_0_3597" style="mask-type:alpha" maskUnits="userSpaceOnUse" x="52" y="47" width="17" height="28">
<path d="M63.5832 53.4098L64.3411 54.4085L64.5412 54.2842L63.5832 53.4098ZM63.7834 53.2855L64.5412 54.2842L64.7852 54.1849L63.7834 53.2855ZM63.4228 53.5583L64.1808 54.5569L64.3411 54.4085L63.4228 53.5583ZM64.0276 53.1861L64.7852 54.1849L65.0772 54.1112L64.0276 53.1861ZM63.2982 53.7302L64.0563 54.7287L64.1808 54.5569L63.2982 53.7302ZM64.3197 53.1124L65.0772 54.1112L65.4212 54.0639L64.3197 53.1124ZM63.2054 53.9248L63.9635 54.9232L64.0563 54.7287L63.2054 53.9248ZM64.6639 53.0651L65.4212 54.0639L65.8212 54.0439L64.6639 53.0651ZM63.1402 54.1412L63.8984 55.1395L63.9635 54.9232L63.1402 54.1412ZM65.0641 53.045L65.8212 54.0439L66.2144 54.0384L65.0641 53.045ZM63.0987 54.3788L63.8569 55.3769L63.8984 55.1395L63.0987 54.3788ZM65.4575 53.0395L66.2144 54.0384L66.5975 54.0335L65.4575 53.0395ZM63.0768 54.6367L63.835 55.6347L63.8569 55.3769L63.0768 54.6367ZM68.1071 53.0132L68.8625 54.0121L68.9743 50.1232L68.1071 53.0132ZM65.8409 53.0346L66.5975 54.0335L66.9659 54.0292L65.8409 53.0346ZM63.0704 54.9143L63.8286 55.9121L63.835 55.6347L63.0704 54.9143ZM66.2095 53.0303L66.9659 54.0292L67.315 54.0254L66.2095 53.0303ZM66.5587 53.0265L67.315 54.0254L67.6402 54.0221L66.5587 53.0265ZM66.8841 53.0232L67.6402 54.0221L67.9369 54.0194L66.8841 53.0232ZM67.1811 53.0204L67.9369 54.0194L68.2006 54.0171L67.1811 53.0204ZM67.4449 53.0181L68.2006 54.0171L68.4266 54.0152L67.4449 53.0181ZM67.671 53.0163L68.4266 54.0152L68.6104 54.0138L67.671 53.0163ZM67.8549 53.0149L68.6104 54.0138L68.7474 54.0129L67.8549 53.0149ZM67.992 53.0139L68.7474 54.0129L68.8329 54.0123L67.992 53.0139ZM68.0776 53.0134L68.8329 54.0123L68.8625 54.0121L68.0776 53.0134ZM63.0705 57.9559L63.8287 58.952L63.8286 55.9121L63.0705 57.9559ZM54.5285 62.2452L55.2916 63.2389L58.7908 63.1884L54.5285 62.2452ZM63.0707 62.1218L63.829 63.1156L68.7752 63.0442L63.0707 62.1218ZM68.0197 62.0503L68.7752 63.0442L68.9996 58.8772L68.0197 62.0503ZM68.2191 49.1221L68.1071 53.0132L68.9743 50.1232L68.2191 49.1221ZM63.7834 53.2855L63.5832 53.4098L64.5412 54.2842L63.7834 53.2855ZM63.5832 53.4098L63.4228 53.5583L64.3411 54.4085L63.5832 53.4098ZM64.0276 53.1861L63.7834 53.2855L64.7852 54.1849L64.0276 53.1861ZM63.4228 53.5583L63.2982 53.7302L64.1808 54.5569L63.4228 53.5583ZM64.3197 53.1124L64.0276 53.1861L65.0772 54.1112L64.3197 53.1124ZM63.2982 53.7302L63.2054 53.9248L64.0563 54.7287L63.2982 53.7302ZM64.6639 53.0651L64.3197 53.1124L65.4212 54.0639L64.6639 53.0651ZM63.2054 53.9248L63.1402 54.1412L63.9635 54.9232L63.2054 53.9248ZM65.0641 53.045L64.6639 53.0651L65.8212 54.0439L65.0641 53.045ZM63.1402 54.1412L63.0987 54.3788L63.8984 55.1395L63.1402 54.1412ZM65.4575 53.0395L65.0641 53.045L66.2144 54.0384L65.4575 53.0395ZM63.0987 54.3788L63.0768 54.6367L63.8569 55.3769L63.0987 54.3788ZM65.8409 53.0346L65.4575 53.0395L66.5975 54.0335L65.8409 53.0346ZM63.0768 54.6367L63.0704 54.9143L63.835 55.6347L63.0768 54.6367ZM66.2095 53.0303L65.8409 53.0346L66.9659 54.0292L66.2095 53.0303ZM66.5587 53.0265L66.2095 53.0303L67.315 54.0254L66.5587 53.0265ZM66.8841 53.0232L66.5587 53.0265L67.6402 54.0221L66.8841 53.0232ZM67.1811 53.0204L66.8841 53.0232L67.9369 54.0194L67.1811 53.0204ZM67.4449 53.0181L67.1811 53.0204L68.2006 54.0171L67.4449 53.0181ZM67.671 53.0163L67.4449 53.0181L68.4266 54.0152L67.671 53.0163ZM67.8549 53.0149L67.671 53.0163L68.6104 54.0138L67.8549 53.0149ZM67.992 53.0139L67.8549 53.0149L68.7474 54.0129L67.992 53.0139ZM63.0704 54.9143L63.0705 57.9559L63.8286 55.9121L63.0704 54.9143ZM68.0776 53.0134L67.992 53.0139L68.8329 54.0123L68.0776 53.0134ZM68.1071 53.0132L68.0776 53.0134L68.8625 54.0121L68.1071 53.0132ZM63.0712 73.6949L63.8296 74.6823L63.829 63.1156L63.0712 73.6949ZM58.0293 73.7673L58.7906 74.7546L63.8296 74.6823L58.0293 73.7673ZM58.0296 62.1946L54.5285 62.2452L58.7908 63.1884L58.0296 62.1946ZM68.2443 57.881L68.0197 62.0503L68.9996 58.8772L68.2443 57.881ZM68.0197 62.0503L63.0707 62.1218L68.7752 63.0442L68.0197 62.0503ZM63.0707 62.1218L63.0712 73.6949L63.829 63.1156L63.0707 62.1218ZM63.0712 73.6949L58.0293 73.7673L63.8296 74.6823L63.0712 73.6949ZM62.8244 52.41L63.5832 53.4098L63.7834 53.2855L62.8244 52.41ZM63.0248 52.2856L63.7834 53.2855L64.0276 53.1861L63.0248 52.2856ZM62.6639 52.5586L63.4228 53.5583L63.5832 53.4098L62.6639 52.5586ZM63.2691 52.1861L64.0276 53.1861L64.3197 53.1124L63.2691 52.1861ZM62.5393 52.7306L63.2982 53.7302L63.4228 53.5583L62.5393 52.7306ZM63.5614 52.1124L64.3197 53.1124L64.6639 53.0651L63.5614 52.1124ZM62.4464 52.9252L63.2054 53.9248L63.2982 53.7302L62.4464 52.9252ZM63.9057 52.065L64.6639 53.0651L65.0641 53.045L63.9057 52.065ZM62.3812 53.1418L63.1402 54.1412L63.2054 53.9248L62.3812 53.1418ZM64.3062 52.0449L65.0641 53.045L65.4575 53.0395L64.3062 52.0449ZM62.3396 53.3795L63.0987 54.3788L63.1402 54.1412L62.3396 53.3795ZM64.6998 52.0395L65.4575 53.0395L65.8409 53.0346L64.6998 52.0395ZM62.3177 53.6376L63.0768 54.6367L63.0987 54.3788L62.3177 53.6376ZM67.3509 52.0131L68.1071 53.0132L68.2191 49.1221L67.3509 52.0131ZM65.0834 52.0346L65.8409 53.0346L66.2095 53.0303L65.0834 52.0346ZM62.3113 53.9153L63.0704 54.9143L63.0768 54.6367L62.3113 53.9153ZM65.4522 52.0302L66.2095 53.0303L66.5587 53.0265L65.4522 52.0302ZM65.8017 52.0264L66.5587 53.0265L66.8841 53.0232L65.8017 52.0264ZM66.1272 52.0231L66.8841 53.0232L67.1811 53.0204L66.1272 52.0231ZM66.4243 52.0204L67.1811 53.0204L67.4449 53.0181L66.4243 52.0204ZM66.6883 52.0181L67.4449 53.0181L67.671 53.0163L66.6883 52.0181ZM66.9146 52.0162L67.671 53.0163L67.8549 53.0149L66.9146 52.0162ZM67.0986 52.0148L67.8549 53.0149L67.992 53.0139L67.0986 52.0148ZM67.2357 52.0139L67.992 53.0139L68.0776 53.0134L67.2357 52.0139ZM67.3213 52.0133L68.0776 53.0134L68.1071 53.0132L67.3213 52.0133ZM62.3114 56.9586L63.0705 57.9559L63.0704 54.9143L62.3114 56.9586ZM53.7645 61.2504L54.5285 62.2452L58.0296 62.1946L53.7645 61.2504ZM62.3116 61.1268L63.0707 62.1218L68.0197 62.0503L62.3116 61.1268ZM67.2633 61.0553L68.0197 62.0503L68.2443 57.881L67.2633 61.0553ZM67.463 48.1198L67.3509 52.0131L68.2191 49.1221L67.463 48.1198ZM63.0248 52.2856L62.8244 52.41L63.7834 53.2855L63.0248 52.2856ZM62.8244 52.41L62.6639 52.5586L63.5832 53.4098L62.8244 52.41ZM63.2691 52.1861L63.0248 52.2856L64.0276 53.1861L63.2691 52.1861ZM62.6639 52.5586L62.5393 52.7306L63.4228 53.5583L62.6639 52.5586ZM63.5614 52.1124L63.2691 52.1861L64.3197 53.1124L63.5614 52.1124ZM62.5393 52.7306L62.4464 52.9252L63.2982 53.7302L62.5393 52.7306ZM63.9057 52.065L63.5614 52.1124L64.6639 53.0651L63.9057 52.065ZM62.4464 52.9252L62.3812 53.1418L63.2054 53.9248L62.4464 52.9252ZM64.3062 52.0449L63.9057 52.065L65.0641 53.045L64.3062 52.0449ZM62.3812 53.1418L62.3396 53.3795L63.1402 54.1412L62.3812 53.1418ZM64.6998 52.0395L64.3062 52.0449L65.4575 53.0395L64.6998 52.0395ZM62.3396 53.3795L62.3177 53.6376L63.0987 54.3788L62.3396 53.3795ZM65.0834 52.0346L64.6998 52.0395L65.8409 53.0346L65.0834 52.0346ZM62.3177 53.6376L62.3113 53.9153L63.0768 54.6367L62.3177 53.6376ZM65.4522 52.0302L65.0834 52.0346L66.2095 53.0303L65.4522 52.0302ZM65.8017 52.0264L65.4522 52.0302L66.5587 53.0265L65.8017 52.0264ZM66.1272 52.0231L65.8017 52.0264L66.8841 53.0232L66.1272 52.0231ZM66.4243 52.0204L66.1272 52.0231L67.1811 53.0204L66.4243 52.0204ZM66.6883 52.0181L66.4243 52.0204L67.4449 53.0181L66.6883 52.0181ZM66.9146 52.0162L66.6883 52.0181L67.671 53.0163L66.9146 52.0162ZM67.0986 52.0148L66.9146 52.0162L67.8549 53.0149L67.0986 52.0148ZM67.2357 52.0139L67.0986 52.0148L67.992 53.0139L67.2357 52.0139ZM62.3113 53.9153L62.3114 56.9586L63.0704 54.9143L62.3113 53.9153ZM67.3213 52.0133L67.2357 52.0139L68.0776 53.0134L67.3213 52.0133ZM67.3509 52.0131L67.3213 52.0133L68.1071 53.0132L67.3509 52.0131ZM62.312 72.7064L63.0712 73.6949L63.0707 62.1218L62.312 72.7064ZM57.2672 72.7788L58.0293 73.7673L63.0712 73.6949L57.2672 72.7788ZM57.2676 61.1997L53.7645 61.2504L58.0296 62.1946L57.2676 61.1997ZM67.4881 56.8836L67.2633 61.0553L68.2443 57.881L67.4881 56.8836ZM67.2633 61.0553L62.3116 61.1268L68.0197 62.0503L67.2633 61.0553ZM62.3116 61.1268L62.312 72.7064L63.0707 62.1218L62.3116 61.1268ZM62.312 72.7064L57.2672 72.7788L63.0712 73.6949L62.312 72.7064ZM62.0648 51.409L62.8244 52.41L63.0248 52.2856L62.0648 51.409ZM62.2653 51.2846L63.0248 52.2856L63.2691 52.1861L62.2653 51.2846ZM61.9042 51.5577L62.6639 52.5586L62.8244 52.41L61.9042 51.5577ZM62.5097 51.185L63.2691 52.1861L63.5614 52.1124L62.5097 51.185ZM61.7795 51.7298L62.5393 52.7306L62.6639 52.5586L61.7795 51.7298ZM62.8022 51.1112L63.5614 52.1124L63.9057 52.065L62.8022 51.1112ZM61.6865 51.9246L62.4464 52.9252L62.5393 52.7306L61.6865 51.9246ZM63.1467 51.0639L63.9057 52.065L64.3062 52.0449L63.1467 51.0639ZM61.6213 52.1412L62.3812 53.1418L62.4464 52.9252L61.6213 52.1412ZM63.5474 51.0438L64.3062 52.0449L64.6998 52.0395L63.5474 51.0438ZM61.5797 52.3791L62.3396 53.3795L62.3812 53.1418L61.5797 52.3791ZM63.9413 51.0383L64.6998 52.0395L65.0834 52.0346L63.9413 51.0383ZM61.5578 52.6373L62.3177 53.6376L62.3396 53.3795L61.5578 52.6373ZM66.5938 51.0119L67.3509 52.0131L67.463 48.1198L66.5938 51.0119ZM64.325 51.0334L65.0834 52.0346L65.4522 52.0302L64.325 51.0334ZM61.5514 52.9152L62.3113 53.9153L62.3177 53.6376L61.5514 52.9152ZM64.694 51.029L65.4522 52.0302L65.8017 52.0264L64.694 51.029ZM65.0437 51.0252L65.8017 52.0264L66.1272 52.0231L65.0437 51.0252ZM65.3695 51.0219L66.1272 52.0231L66.4243 52.0204L65.3695 51.0219ZM65.6667 51.0192L66.4243 52.0204L66.6883 52.0181L65.6667 51.0192ZM65.9309 51.0169L66.6883 52.0181L66.9146 52.0162L65.9309 51.0169ZM66.1573 51.015L66.9146 52.0162L67.0986 52.0148L66.1573 51.015ZM66.3414 51.0136L67.0986 52.0148L67.2357 52.0139L66.3414 51.0136ZM66.4786 51.0126L67.2357 52.0139L67.3213 52.0133L66.4786 51.0126ZM66.5643 51.0121L67.3213 52.0133L67.3509 52.0131L66.5643 51.0121ZM61.5514 55.9602L62.3114 56.9586L62.3113 53.9153L61.5514 55.9602ZM52.9996 60.2544L53.7645 61.2504L57.2676 61.1997L52.9996 60.2544ZM61.5515 60.1307L62.3116 61.1268L67.2633 61.0553L61.5515 60.1307ZM66.5061 60.0591L67.2633 61.0553L67.4881 56.8836L66.5061 60.0591ZM66.706 47.1165L66.5938 51.0119L67.463 48.1198L66.706 47.1165ZM62.2653 51.2846L62.0648 51.409L63.0248 52.2856L62.2653 51.2846ZM62.0648 51.409L61.9042 51.5577L62.8244 52.41L62.0648 51.409ZM62.5097 51.185L62.2653 51.2846L63.2691 52.1861L62.5097 51.185ZM61.9042 51.5577L61.7795 51.7298L62.6639 52.5586L61.9042 51.5577ZM62.8022 51.1112L62.5097 51.185L63.5614 52.1124L62.8022 51.1112ZM61.7795 51.7298L61.6865 51.9246L62.5393 52.7306L61.7795 51.7298ZM63.1467 51.0639L62.8022 51.1112L63.9057 52.065L63.1467 51.0639ZM61.6865 51.9246L61.6213 52.1412L62.4464 52.9252L61.6865 51.9246ZM63.5474 51.0438L63.1467 51.0639L64.3062 52.0449L63.5474 51.0438ZM61.6213 52.1412L61.5797 52.3791L62.3812 53.1418L61.6213 52.1412ZM63.9413 51.0383L63.5474 51.0438L64.6998 52.0395L63.9413 51.0383ZM61.5797 52.3791L61.5578 52.6373L62.3396 53.3795L61.5797 52.3791ZM64.325 51.0334L63.9413 51.0383L65.0834 52.0346L64.325 51.0334ZM61.5578 52.6373L61.5514 52.9152L62.3177 53.6376L61.5578 52.6373ZM64.694 51.029L64.325 51.0334L65.4522 52.0302L64.694 51.029ZM65.0437 51.0252L64.694 51.029L65.8017 52.0264L65.0437 51.0252ZM65.3695 51.0219L65.0437 51.0252L66.1272 52.0231L65.3695 51.0219ZM65.6667 51.0192L65.3695 51.0219L66.4243 52.0204L65.6667 51.0192ZM65.9309 51.0169L65.6667 51.0192L66.6883 52.0181L65.9309 51.0169ZM66.1573 51.015L65.9309 51.0169L66.9146 52.0162L66.1573 51.015ZM66.3414 51.0136L66.1573 51.015L67.0986 52.0148L66.3414 51.0136ZM66.4786 51.0126L66.3414 51.0136L67.2357 52.0139L66.4786 51.0126ZM61.5514 52.9152L61.5514 55.9602L62.3113 53.9153L61.5514 52.9152ZM66.5643 51.0121L66.4786 51.0126L67.3213 52.0133L66.5643 51.0121ZM66.5938 51.0119L66.5643 51.0121L67.3509 52.0131L66.5938 51.0119ZM61.5518 71.7168L62.312 72.7064L62.3116 61.1268L61.5518 71.7168ZM56.5042 71.7893L57.2672 72.7788L62.312 72.7064L56.5042 71.7893ZM56.5048 60.2037L52.9996 60.2544L57.2676 61.1997L56.5048 60.2037Z" fill="#7895DE"/>
<path d="M60.2639 47.4938L59.4516 47.8303L58.743 48.2398L60.2639 47.4938ZM58.743 48.2398L58.136 48.7142L57.6284 49.2455L58.743 48.2398ZM62.2086 47.0724L60.2639 47.4938L58.743 48.2398L62.2086 47.0724Z" fill="#E4E9FF"/>
<path d="M66.7307 55.8851L66.5057 60.0592L67.4877 56.8836L66.7307 55.8851Z" fill="#7895DE"/>
<path d="M58.7431 48.2398L57.6285 49.2456L56.9027 50.4464L58.7431 48.2398ZM62.2087 47.0724L61.1823 47.2385L60.264 47.4938L62.2087 47.0724ZM57.6285 49.2456L57.2181 49.8257L56.9027 50.4464L57.6285 49.2456ZM64.6853 47.0094L62.2087 47.0724L58.7431 48.2398L64.6853 47.0094ZM63.8173 47L63.3455 47.0037L62.2087 47.0724L63.8173 47ZM64.6853 47.0094L63.8173 47L62.2087 47.0724L64.6853 47.0094ZM56.9027 50.4464L56.6801 51.0997L56.5481 51.7775L56.9027 50.4464ZM64.6853 47.0094L64.265 47.0023L63.8173 47L64.6853 47.0094Z" fill="#E4E9FF"/>
<path d="M66.5057 60.0592L61.5511 60.1308L67.2629 61.0554L66.5057 60.0592Z" fill="#7895DE"/>
<path d="M65.4313 47.0341L65.0754 47.0204L64.6857 47.0094L65.4313 47.0341ZM58.7435 48.2398L56.903 50.4463L56.5048 56.0333L58.7435 48.2398ZM66.0288 47.0655L65.4313 47.0341L64.6857 47.0094L66.0288 47.0655ZM64.6857 47.0094L58.7435 48.2398L56.5048 56.0333L64.6857 47.0094ZM66.0288 47.0655L65.7502 47.0495L65.4313 47.0341L66.0288 47.0655ZM66.6766 47.1137L66.0288 47.0655L64.6857 47.0094L66.6766 47.1137ZM56.903 50.4463L56.5485 51.7775L56.5048 56.0333L56.903 50.4463ZM66.4524 47.0949L66.2639 47.081L66.0288 47.0655L66.4524 47.0949ZM66.6766 47.1137L66.4524 47.0949L66.0288 47.0655L66.6766 47.1137ZM66.6766 47.1137L66.5911 47.1062L66.4524 47.0949L66.6766 47.1137ZM56.5485 51.7775L56.5049 52.4716L56.5048 56.0333L56.5485 51.7775Z" fill="#E4E9FF"/>
<path d="M61.5511 60.1307L61.5514 71.7168L62.3111 61.1268L61.5511 60.1307Z" fill="#7895DE"/>
<path d="M64.6863 47.0098L62.0651 51.4094L62.2656 51.2849L64.6863 47.0098ZM64.6863 47.0098L62.2656 51.2849L62.5101 51.1854L64.6863 47.0098ZM64.6863 47.0098L62.5101 51.1854L62.8025 51.1116L64.6863 47.0098ZM62.8025 51.1116L63.1471 51.0643L64.6863 47.0098L62.8025 51.1116ZM66.4789 51.013L66.6772 47.1141L64.6863 47.0098L66.4789 51.013ZM63.1471 51.0643L63.5478 51.0441L64.6863 47.0098L63.1471 51.0643ZM63.5478 51.0441L63.9416 51.0387L64.6863 47.0098L63.5478 51.0441ZM64.6863 47.0098L56.5053 56.0337L62.0651 51.4094L64.6863 47.0098ZM63.9416 51.0387L64.3254 51.0338L64.6863 47.0098L63.9416 51.0387ZM66.5942 51.0123L66.7064 47.1168L66.6772 47.1141L66.5942 51.0123ZM64.3254 51.0338L64.6944 51.0294L64.6863 47.0098L64.3254 51.0338ZM64.6944 51.0294L65.0441 51.0256L64.6863 47.0098L64.6944 51.0294ZM65.0441 51.0256L65.3699 51.0223L64.6863 47.0098L65.0441 51.0256ZM65.3699 51.0223L65.6671 51.0195L64.6863 47.0098L65.3699 51.0223ZM65.6671 51.0195L65.9312 51.0172L64.6863 47.0098L65.6671 51.0195ZM65.9312 51.0172L66.1576 51.0154L64.6863 47.0098L65.9312 51.0172ZM66.1576 51.0154L66.3417 51.014L64.6863 47.0098L66.1576 51.0154ZM56.5053 56.0337L61.9046 51.5581L62.0651 51.4094L56.5053 56.0337ZM66.3417 51.014L66.4789 51.013L64.6863 47.0098L66.3417 51.014ZM56.5053 56.0337L61.7798 51.7302L61.9046 51.5581L56.5053 56.0337ZM56.5053 56.0337L61.6869 51.9249L61.7798 51.7302L56.5053 56.0337ZM56.5053 56.0337L61.6217 52.1416L61.6869 51.9249L56.5053 56.0337ZM56.5053 56.0337L61.5801 52.3795L61.6217 52.1416L56.5053 56.0337ZM66.4789 51.013L66.5646 51.0124L66.6772 47.1141L66.4789 51.013ZM56.5053 56.0337L61.5581 52.6377L61.5801 52.3795L56.5053 56.0337ZM66.5646 51.0124L66.5942 51.0123L66.6772 47.1141L66.5646 51.0124ZM56.5053 56.0337L61.5517 52.9155L61.5581 52.6377L56.5053 56.0337ZM56.5053 56.0337L53.0004 56.0845L56.5051 60.2041L56.5053 56.0337ZM56.5053 56.0337L61.5518 55.9605L61.5517 52.9155L56.5053 56.0337ZM53.0004 56.0845L53 60.2548L56.5051 60.2041L53.0004 56.0845ZM56.5053 56.0337L61.5519 60.1311L61.5518 55.9605L56.5053 56.0337ZM56.5053 56.0337L56.5051 60.2041L61.5519 60.1311L56.5053 56.0337Z" fill="#E4E9FF"/>
<path d="M61.5513 71.7168L56.5037 71.7893L62.3115 72.7064L61.5513 71.7168Z" fill="#7895DE"/>
<path d="M66.5056 60.0592L66.7306 55.8851L61.551 55.9602L66.5056 60.0592ZM61.5511 60.1308L66.5056 60.0592L61.551 55.9602L61.5511 60.1308ZM56.5043 60.2038L61.5513 71.7168L61.5511 60.1308L56.5043 60.2038ZM56.5043 60.2038L56.5037 71.7893L61.5513 71.7168L56.5043 60.2038Z" fill="#E4E9FF"/>
</mask>
<g mask="url(#mask0_0_3597)">
<g style="mix-blend-mode:multiply" opacity="0.3">
<rect x="44.1139" y="49.7922" width="31.7353" height="23.2682" fill="url(#paint2_linear_0_3597)"/>
</g>
</g>
<defs>
<filter id="filter0_d_0_3597" x="0" y="0" width="129" height="129" filterUnits="userSpaceOnUse" color-interpolation-filters="sRGB">
<feFlood flood-opacity="0" result="BackgroundImageFix"/>
<feColorMatrix in="SourceAlpha" type="matrix" values="0 0 0 0 0 0 0 0 0 0 0 0 0 0 0 0 0 0 127 0" result="hardAlpha"/>
<feOffset dx="4" dy="4"/>
<feGaussianBlur stdDeviation="20"/>
<feColorMatrix type="matrix" values="0 0 0 0 0.142622 0 0 0 0 0.250839 0 0 0 0 0.645833 0 0 0 0.1 0"/>
<feBlend mode="normal" in2="BackgroundImageFix" result="effect1_dropShadow_0_3597"/>
<feBlend mode="normal" in="SourceGraphic" in2="effect1_dropShadow_0_3597" result="shape"/>
</filter>
<filter id="filter1_ddd_0_3597" x="12.9996" y="12" width="106" height="107.755" filterUnits="userSpaceOnUse" color-interpolation-filters="sRGB">
<feFlood flood-opacity="0" result="BackgroundImageFix"/>
<feColorMatrix in="SourceAlpha" type="matrix" values="0 0 0 0 0 0 0 0 0 0 0 0 0 0 0 0 0 0 127 0" result="hardAlpha"/>
<feOffset dx="10" dy="5"/>
<feGaussianBlur stdDeviation="5"/>
<feColorMatrix type="matrix" values="0 0 0 0 0.192157 0 0 0 0 0.341176 0 0 0 0 0.72549 0 0 0 1 0"/>
<feBlend mode="normal" in2="BackgroundImageFix" result="effect1_dropShadow_0_3597"/>
<feColorMatrix in="SourceAlpha" type="matrix" values="0 0 0 0 0 0 0 0 0 0 0 0 0 0 0 0 0 0 127 0" result="hardAlpha"/>
<feOffset dx="20" dy="15"/>
<feGaussianBlur stdDeviation="15"/>
<feColorMatrix type="matrix" values="0 0 0 0 0.219608 0 0 0 0 0.364706 0 0 0 0 0.737255 0 0 0 1 0"/>
<feBlend mode="normal" in2="effect1_dropShadow_0_3597" result="effect2_dropShadow_0_3597"/>
<feColorMatrix in="SourceAlpha" type="matrix" values="0 0 0 0 0 0 0 0 0 0 0 0 0 0 0 0 0 0 127 0" result="hardAlpha"/>
<feOffset dx="-10" dy="-5"/>
<feGaussianBlur stdDeviation="15"/>
<feColorMatrix type="matrix" values="0 0 0 0 1 0 0 0 0 1 0 0 0 0 1 0 0 0 0.2 0"/>
<feBlend mode="normal" in2="effect2_dropShadow_0_3597" result="effect3_dropShadow_0_3597"/>
<feBlend mode="normal" in="SourceGraphic" in2="effect3_dropShadow_0_3597" result="shape"/>
</filter>
<linearGradient id="paint0_linear_0_3597" x1="42.7846" y1="42.4831" x2="75.5015" y2="79.6477" gradientUnits="userSpaceOnUse">
<stop stop-color="#5A89FF"/>
<stop offset="1" stop-color="#376AEB"/>
</linearGradient>
<linearGradient id="paint1_linear_0_3597" x1="40.0708" y1="46.8554" x2="79.0446" y2="75.2754" gradientUnits="userSpaceOnUse">
<stop stop-color="#C8D7FF"/>
<stop offset="1" stop-color="#2B56C5"/>
</linearGradient>
<linearGradient id="paint2_linear_0_3597" x1="44.949" y1="55.6093" x2="62.3765" y2="80.6873" gradientUnits="userSpaceOnUse">
<stop offset="0.245002" stop-color="white"/>
<stop offset="1" stop-color="#879AFF"/>
</linearGradient>
</defs>
</svg>
