<svg width="19" height="23" viewBox="0 0 19 23" fill="none" xmlns="http://www.w3.org/2000/svg">
<path d="M9.5 0V4.93769C11.5862 4.93769 13.2837 6.63467 13.2837 8.72136C13.2837 10.8076 11.5862 12.505 9.5 12.505V23L16.4255 14.2928C17.6689 12.7202 18.3264 10.8303 18.3264 8.82636C18.3264 3.95961 14.3667 0 9.5 0Z" fill="#ADC3FC"/>
<path d="M13.2837 8.72117C13.2837 6.63448 11.5862 4.9375 9.5 4.9375V12.5048C11.5862 12.5048 13.2837 10.8074 13.2837 8.72117Z" fill="white"/>
<path d="M5.71627 8.72136C5.71627 6.63467 7.41372 4.93769 9.49995 4.93769V0C4.6332 0 0.673584 3.95961 0.673584 8.82636C0.673584 10.8303 1.331 12.7202 2.5763 14.2947L9.49995 23V12.505C7.41372 12.505 5.71627 10.8076 5.71627 8.72136Z" fill="#ADC3FC"/>
<path d="M5.71631 8.72117C5.71631 10.8074 7.41376 12.5048 9.49998 12.5048V4.9375C7.41376 4.9375 5.71631 6.63448 5.71631 8.72117Z" fill="white"/>
</svg>
