<svg width="18" height="17" viewBox="0 0 18 17" fill="none" xmlns="http://www.w3.org/2000/svg">
<g clip-path="url(#clip0_0_1865)">
<path d="M12.5417 2.12489C12.7277 1.93885 12.9486 1.79127 13.1917 1.69059C13.4347 1.58991 13.6953 1.53809 13.9584 1.53809C14.2215 1.53809 14.482 1.58991 14.725 1.69059C14.9681 1.79127 15.189 1.93885 15.375 2.12489C15.5611 2.31093 15.7086 2.53179 15.8093 2.77486C15.91 3.01793 15.9618 3.27846 15.9618 3.54156C15.9618 3.80465 15.91 4.06518 15.8093 4.30825C15.7086 4.55132 15.5611 4.77218 15.375 4.95822L5.81252 14.5207L1.91669 15.5832L2.97919 11.6874L12.5417 2.12489Z" stroke="#ADC3FC" stroke-width="2" stroke-linecap="round" stroke-linejoin="round"/>
</g>
<defs>
<clipPath id="clip0_0_1865">
<rect width="17" height="17" fill="white" transform="translate(0.5)"/>
</clipPath>
</defs>
</svg>
