<svg width="187" height="187" viewBox="0 0 187 187" fill="none" xmlns="http://www.w3.org/2000/svg">
<g filter="url(#filter0_d_0_1344)">
<rect x="45" y="35" width="87" height="87" rx="20" fill="#F5F9FE"/>
</g>
<g clip-path="url(#clip0_0_1344)">
<g filter="url(#filter1_d_0_1344)">
<path d="M110.762 59.4969C109.763 59.0447 108.9 59.0768 108.314 59.4938L107.76 59.8889C107.762 59.8876 107.764 59.8865 107.766 59.8852C107.184 60.2959 106.874 61.0845 106.974 62.155C107.173 64.3029 108.944 66.773 110.93 67.6716C111.958 68.1366 112.84 68.0881 113.426 67.6362C113.409 67.649 113.393 67.6624 113.376 67.6745L113.931 67.2795C114.509 66.8677 114.816 66.0803 114.717 65.0131C114.517 62.8654 112.746 60.3952 110.762 59.4969Z" fill="#BBC4DC"/>
<path d="M107.76 59.8891L108.314 59.494C108.9 59.077 109.762 59.0451 110.762 59.4971L110.207 59.8921C109.208 59.44 108.345 59.472 107.76 59.8891Z" fill="#F2F4FA"/>
<path d="M113.931 67.2795L113.376 67.6745C113.954 67.2628 114.262 66.4754 114.162 65.4082C113.963 63.2603 112.192 60.7902 110.207 59.8919L110.761 59.4969C112.746 60.3952 114.517 62.8653 114.717 65.0131C114.816 66.0804 114.509 66.8677 113.931 67.2795Z" fill="#BBC4DC"/>
<path d="M110.207 59.8922C112.192 60.7905 113.963 63.2605 114.163 65.4084C114.362 67.5562 112.915 68.5701 110.93 67.6717C108.945 66.7731 107.174 64.303 106.974 62.1552C106.774 60.0073 108.222 58.9935 110.207 59.8922Z" fill="#A8B0CC"/>
<path d="M110.555 63.7944L110.312 61.1768L109.585 60.8478L107.433 62.381L107.41 62.3706L91.1236 73.9641L91.1967 74.7503L93.6146 75.8447L93.8581 78.4623L94.5851 78.7914L96.7367 77.2581L96.7603 77.2688L113.047 65.6754L112.974 64.8893L110.555 63.7944Z" fill="#BBC4DC"/>
<path d="M96.6855 76.4822L112.974 64.8857L113.047 65.6718L96.7585 77.2684L96.6855 76.4822Z" fill="#BBC4DC"/>
<path d="M94.2666 75.3861L110.555 63.7926L112.974 64.8872L96.6852 76.4807L94.2666 75.3861Z" fill="#F2F4FA"/>
<path d="M94.0234 72.7687L110.312 61.1752L110.555 63.7925L94.2667 75.386L94.0234 72.7687Z" fill="#BBC4DC"/>
<path d="M93.2964 72.4397L109.585 60.8463L110.312 61.1753L94.0234 72.7688L93.2964 72.4397Z" fill="#F2F4FA"/>
<path d="M94.0237 72.7702L94.2668 75.3877L96.685 76.4822L96.758 77.2683L94.3397 76.1738L94.5827 78.7912L93.8558 78.4622L93.6128 75.8447L91.1952 74.7506L91.1222 73.9645L93.5399 75.0586L93.2968 72.4412L94.0237 72.7702Z" fill="#BBC4DC"/>
<path d="M107.241 67.7916C105.274 66.0619 103.223 64.7139 101.212 63.8039C99.202 62.894 97.2322 62.4223 95.4281 62.4451C95.2171 62.448 95.0355 62.5057 94.8894 62.6099L94.1847 63.1122C94.1875 63.1101 94.1908 63.1088 94.1936 63.1069C93.8883 63.3189 93.7336 63.7301 93.7836 64.2677L94.2342 69.1224C94.3078 69.9146 94.8105 70.8288 95.5124 71.4465C97.4792 73.1762 99.5304 74.5242 101.541 75.4342C103.551 76.3441 105.521 76.8158 107.325 76.7929C107.545 76.7899 107.732 76.7262 107.881 76.6134C107.875 76.618 107.87 76.6237 107.864 76.6281L108.568 76.1259C108.868 75.9121 109.019 75.5029 108.97 74.9704L108.519 70.1157C108.445 69.3234 107.943 68.4093 107.241 67.7916Z" fill="#BBC4DC"/>
<path d="M108.57 76.1244L107.865 76.6268C108.165 76.413 108.316 76.0037 108.267 75.4711L108.971 74.9688C109.021 75.5015 108.87 75.9107 108.57 76.1244Z" fill="#969FBE"/>
<path d="M94.1835 63.1109L94.8882 62.6087C95.0344 62.5046 95.2159 62.4469 95.4269 62.444C97.2313 62.4212 99.2014 62.893 101.212 63.803L100.507 64.3052C98.4966 63.3952 96.5265 62.9235 94.7222 62.9462C94.5111 62.9491 94.3296 63.0067 94.1835 63.1109Z" fill="#F2F4FA"/>
<path d="M107.815 70.6167L108.52 70.1146L108.971 74.9688L108.266 75.471L107.815 70.6167Z" fill="#BBC4DC"/>
<path d="M100.507 64.3051L101.212 63.8029C103.223 64.7129 105.274 66.061 107.242 67.7906C107.944 68.4083 108.446 69.3224 108.52 70.1145L107.815 70.6167C107.742 69.8246 107.239 68.9104 106.537 68.2928C104.57 66.5631 102.518 65.215 100.507 64.3051Z" fill="#F2F4FA"/>
<path d="M100.507 64.3051C102.518 65.215 104.569 66.563 106.537 68.2928C107.239 68.9104 107.742 69.8246 107.815 70.6167L108.266 75.4709C108.34 76.263 107.97 76.7822 107.326 76.7909C105.522 76.8138 103.552 76.342 101.541 75.4319C99.5304 74.522 97.479 73.174 95.5117 71.4442C94.8097 70.8266 94.3068 69.9125 94.2332 69.1203L93.7821 64.2661C93.7085 63.474 94.0782 62.9548 94.7221 62.9461C96.5264 62.9233 98.4965 63.3951 100.507 64.3051Z" fill="#A8B0CC"/>
<path d="M100.901 66.3327C99.8914 65.8757 99.0192 65.9078 98.4276 66.3294L73.7385 83.9125C73.7404 83.9113 73.7424 83.91 73.7442 83.9088C73.1566 84.3238 72.8436 85.1208 72.9442 86.2033C73.1459 88.3751 74.9359 90.8733 76.943 91.7816C77.9836 92.2525 78.8775 92.2025 79.4698 91.7437C79.4525 91.7572 79.4356 91.7714 79.4178 91.7842L104.107 74.201C104.691 73.7845 105.002 72.9885 104.902 71.9097C104.7 69.7377 102.908 67.241 100.901 66.3327Z" fill="#BBC4DC"/>
<path d="M73.7387 83.9126L98.4278 66.3294C99.0193 65.9078 99.8914 65.8756 100.901 66.3328L76.2124 83.9158C75.2025 83.4588 74.3303 83.491 73.7387 83.9126Z" fill="#F2F4FA"/>
<path d="M104.107 74.2009L79.418 91.784C80.0025 91.3675 80.3136 90.5715 80.2134 89.4926C80.0116 87.3208 78.2194 84.8241 76.2124 83.9158L100.902 66.3327C102.909 67.2409 104.701 69.7376 104.902 71.9096C105.003 72.9885 104.692 73.7844 104.107 74.2009Z" fill="#BBC4DC"/>
<path d="M76.2123 83.9157C78.2194 84.8239 80.0115 87.3207 80.2133 89.4926C80.415 91.6644 78.9503 92.6897 76.9432 91.7813C74.9361 90.8729 73.1461 88.3748 72.9444 86.203C72.7425 84.0312 74.2053 83.0075 76.2123 83.9157Z" fill="#A8B0CC"/>
<path d="M76.0394 86.5786C75.6332 86.3948 75.2823 86.4077 75.0444 86.5773L71.8503 88.8892C71.851 88.8887 71.852 88.8883 71.8527 88.8877C71.6164 89.0546 71.4903 89.375 71.5308 89.8105C71.6119 90.6841 72.3319 91.6888 73.1392 92.0541C73.5714 92.2498 73.9396 92.2206 74.1776 92.019C74.1633 92.0311 74.1499 92.0443 74.1346 92.0552L77.3289 89.7433C77.564 89.5758 77.6891 89.2556 77.6488 88.8215C77.5676 87.9482 76.8468 86.9439 76.0394 86.5786Z" fill="#BBC4DC"/>
<path d="M71.8503 88.8892L75.0445 86.5772C75.2824 86.4077 75.6333 86.3947 76.0395 86.5785L72.8453 88.8904C72.439 88.7067 72.0883 88.7196 71.8503 88.8892Z" fill="#F2F4FA"/>
<path d="M77.3289 89.7435L74.1346 92.0555C74.3697 91.8878 74.4949 91.5678 74.4545 91.1337C74.3733 90.2601 73.6526 89.2559 72.8453 88.8906L76.0395 86.5786C76.8468 86.9439 77.5675 87.9482 77.6488 88.8217C77.6891 89.2558 77.564 89.576 77.3289 89.7435Z" fill="#BBC4DC"/>
<path d="M72.8453 88.8906C73.6525 89.2559 74.3733 90.2602 74.4545 91.1337C74.5356 92.0073 73.9465 92.4197 73.1393 92.0543C72.3321 91.689 71.6121 90.6841 71.5308 89.8106C71.4496 88.9371 72.0379 88.5253 72.8453 88.8906Z" fill="#A8B0CC"/>
<path d="M73.0118 90.0411L73.0033 90.0477C72.905 90.0058 72.82 90.0092 72.7618 90.0507L63.6293 97.0343C63.6296 97.0343 63.6299 97.0344 63.6303 97.0345C63.5498 97.0982 63.4612 97.2109 63.3873 97.3898C63.2661 97.6828 63.031 98.3995 63.2581 98.4925C63.283 98.5027 63.3154 98.4905 63.352 98.4637C63.3508 98.465 63.3492 98.467 63.3482 98.4676L73.337 90.8392C73.3962 90.7969 73.4279 90.7163 73.4177 90.6068C73.3972 90.3866 73.2155 90.1332 73.0118 90.0411Z" fill="#ACABB1"/>
<path d="M63.6294 97.0343L72.7619 90.0507C72.8219 90.008 72.9104 90.0047 73.0129 90.051L63.8009 97.0955C63.6986 97.0491 63.7044 97.0539 63.6294 97.0343Z" fill="#F2F4FA"/>
<path d="M73.337 90.8392L63.3483 98.4676C63.4075 98.4253 64.0035 97.1776 63.7999 97.0856L73.0119 90.0411C73.2155 90.1332 73.3974 90.3865 73.4177 90.6068C73.4279 90.7162 73.3964 90.7969 73.337 90.8392Z" fill="#BBC4DC"/>
<path d="M63.822 96.9726C64.0456 97.0738 63.8714 97.6918 63.6881 98.0224C63.565 98.2443 63.3539 98.5321 63.2583 98.4931C63.0311 98.4001 63.2663 97.6831 63.3875 97.39C63.5334 97.0375 63.7356 96.941 63.822 96.9726Z" fill="#ACABB1"/>
<path d="M95.726 70.577C94.8371 70.1748 94.0696 70.203 93.5488 70.574L91.4348 72.0803C91.4365 72.0792 91.4382 72.0782 91.4399 72.077C90.9227 72.4423 90.6471 73.1437 90.7357 74.0965C90.9133 76.0071 92.4886 78.2038 94.2549 79.0032C95.1691 79.4169 95.9544 79.3738 96.4751 78.9721C96.4606 78.9833 96.4465 78.9953 96.4313 79.006L98.5454 77.4997C99.0593 77.1335 99.3326 76.4334 99.2445 75.4843C99.0669 73.5725 97.4917 71.3759 95.726 70.577Z" fill="#BBC4DC"/>
<path d="M91.4348 72.0801L93.5489 70.5738C94.0696 70.2028 94.8371 70.1743 95.726 70.5767L93.612 72.083C92.723 71.6807 91.9554 71.7091 91.4348 72.0801Z" fill="#264DAE"/>
<path d="M98.5455 77.4993L96.4315 79.0057C96.9454 78.6395 97.2187 77.9395 97.1306 76.9903C96.953 75.079 95.3777 72.8823 93.612 72.0832L95.726 70.5769C97.4918 71.376 99.067 73.5727 99.2447 75.484C99.3328 76.4331 99.0595 77.1331 98.5455 77.4993Z" fill="#3468EC"/>
<path d="M93.612 72.0833C95.3778 72.8824 96.953 75.0791 97.1306 76.9904C97.3082 78.901 96.0208 79.8023 94.2551 79.0032C92.4887 78.2038 90.9134 76.0072 90.7359 74.0965C90.5582 72.185 91.8456 71.2839 93.612 72.0833Z" fill="#ADC3FC"/>
<path d="M88.2761 76.0727L87.7884 76.4206C89.3728 77.3548 90.736 79.2649 91.0875 81.0485L91.5781 80.6984C91.1427 78.9232 89.8245 77.0776 88.2761 76.0727Z" fill="#F2F7FF"/>
<path d="M86.0332 77.6721L85.5455 78.0199C87.1297 78.9547 88.4925 80.8652 88.8433 82.6486L89.3339 82.2986C88.8993 80.5233 87.5814 78.6775 86.0332 77.6721Z" fill="#F2F7FF"/>
<path d="M83.7901 79.2712L83.3026 79.619C84.8866 80.5545 86.2491 82.4652 86.5991 84.2486L87.0899 83.8985C86.6557 82.1233 85.3383 80.2772 83.7901 79.2712Z" fill="#F2F7FF"/>
<path d="M79.3043 82.4702L78.8169 82.8179C80.4007 83.7547 81.7622 85.6661 82.111 87.4493L82.6019 87.0991C82.1689 85.324 80.8522 83.4774 79.3043 82.4702Z" fill="#F2F7FF"/>
<path d="M81.5472 80.8708L81.0598 81.2186C82.6437 82.1547 84.0058 84.0659 84.3552 85.8492L84.846 85.499C84.4123 83.7238 83.0953 81.8775 81.5472 80.8708Z" fill="#F2F7FF"/>
<path d="M99.4906 68.0754L99.0026 68.4234C100.588 69.3542 101.953 71.2628 102.308 73.0468L102.798 72.6972C102.36 70.9216 101.04 69.0775 99.4906 68.0754Z" fill="#F2F7FF"/>
<path d="M97.2476 69.6747L96.7598 70.0228C98.3446 70.9541 99.7095 72.8631 100.064 74.6472L100.554 74.2975C100.116 72.5219 98.7966 70.6775 97.2476 69.6747Z" fill="#F2F7FF"/>
<path d="M90.519 74.4731L90.0312 74.821C91.6157 75.7544 92.9795 77.6644 93.3316 79.4479L93.8222 79.0981C93.3861 77.3226 92.0675 75.4775 90.519 74.4731Z" fill="#F2F7FF"/>
<path d="M95.0048 71.2744L94.517 71.6224C96.1016 72.5545 97.4662 74.4637 97.8198 76.2476L98.3103 75.8978C97.873 74.1221 96.5536 72.2775 95.0048 71.2744Z" fill="#F2F7FF"/>
<path d="M92.7619 72.8737L92.2742 73.2217C93.8587 74.1545 95.2228 76.064 95.5757 77.8478L96.0662 77.498C95.6295 75.7225 94.3106 73.8776 92.7619 72.8737Z" fill="#F2F7FF"/>
</g>
</g>
<defs>
<filter id="filter0_d_0_1344" x="0" y="0" width="187" height="187" filterUnits="userSpaceOnUse" color-interpolation-filters="sRGB">
<feFlood flood-opacity="0" result="BackgroundImageFix"/>
<feColorMatrix in="SourceAlpha" type="matrix" values="0 0 0 0 0 0 0 0 0 0 0 0 0 0 0 0 0 0 127 0" result="hardAlpha"/>
<feOffset dx="5" dy="15"/>
<feGaussianBlur stdDeviation="25"/>
<feColorMatrix type="matrix" values="0 0 0 0 0.628299 0 0 0 0 0.72683 0 0 0 0 0.979167 0 0 0 1 0"/>
<feBlend mode="normal" in2="BackgroundImageFix" result="effect1_dropShadow_0_1344"/>
<feBlend mode="normal" in="SourceGraphic" in2="effect1_dropShadow_0_1344" result="shape"/>
</filter>
<filter id="filter1_d_0_1344" x="38.163" y="59.1694" width="81.5724" height="69.3271" filterUnits="userSpaceOnUse" color-interpolation-filters="sRGB">
<feFlood flood-opacity="0" result="BackgroundImageFix"/>
<feColorMatrix in="SourceAlpha" type="matrix" values="0 0 0 0 0 0 0 0 0 0 0 0 0 0 0 0 0 0 127 0" result="hardAlpha"/>
<feOffset dx="-10" dy="15"/>
<feGaussianBlur stdDeviation="7.5"/>
<feColorMatrix type="matrix" values="0 0 0 0 0.700972 0 0 0 0 0.763917 0 0 0 0 0.858333 0 0 0 0.4 0"/>
<feBlend mode="normal" in2="BackgroundImageFix" result="effect1_dropShadow_0_1344"/>
<feBlend mode="normal" in="SourceGraphic" in2="effect1_dropShadow_0_1344" result="shape"/>
</filter>
<clipPath id="clip0_0_1344">
<rect width="71" height="63" fill="white" transform="translate(49.7688 51.0701) rotate(-6.27688)"/>
</clipPath>
</defs>
</svg>
