<svg width="119" height="100" viewBox="0 0 119 100" fill="none" xmlns="http://www.w3.org/2000/svg">
<g filter="url(#filter0_ddd_0_3313)">
<path d="M46.3974 37.9347L47.2121 38.9708L47.1287 38.8558L46.3974 37.9347ZM46.4745 38.0677L47.2891 39.1037L47.2121 38.9708L46.4745 38.0677ZM46.5469 38.2192L47.3614 39.2552L47.2891 39.1037L46.5469 38.2192ZM46.616 38.3897L47.4306 39.4256L47.3614 39.2552L46.616 38.3897ZM46.6835 38.5797L47.498 39.6155L47.4306 39.4256L46.6835 38.5797ZM47.0468 39.5956L47.8611 40.6308L47.498 39.6155L47.0468 39.5956ZM47.4414 40.5783L48.2555 41.613L47.8611 40.6308L47.4414 40.5783ZM47.8594 41.5173L48.6732 42.5515L48.2555 41.613L47.8594 41.5173ZM51.0149 38.6412L51.827 39.677L51.9494 39.8316L51.0149 38.6412ZM48.2926 42.402L49.1062 43.4357L48.6732 42.5515L48.2926 42.402ZM48.7331 43.2218L49.5465 44.255L49.1062 43.4357L48.7331 43.2218ZM56.5818 37.61L57.3907 38.6464L57.3336 38.5525L56.5818 37.61ZM56.6271 37.72L57.436 38.7563L57.3907 38.6464L56.6271 37.72ZM49.1728 43.966L49.9859 44.9988L49.5465 44.255L49.1728 43.966ZM56.6612 37.8461L57.4701 38.8824L57.436 38.7563L56.6612 37.8461ZM56.6848 37.9887L57.4937 39.0249L57.4701 38.8824L56.6848 37.9887ZM56.6985 38.1481L57.5074 39.1842L57.4937 39.0249L56.6985 38.1481ZM56.703 38.3245L57.5118 39.3605L57.5074 39.1842L56.703 38.3245ZM49.6037 44.6241L50.4166 45.6565L49.9859 44.9988L49.6037 44.6241ZM50.0177 45.1855L50.8304 46.2176L50.4166 45.6565L50.0177 45.1855ZM46.6889 48.7421L47.5035 49.7722L48.1401 50.5221L46.6889 48.7421ZM56.7033 44.084L57.5122 45.1168L57.5118 39.3605L56.7033 44.084ZM47.3259 49.4924L48.1401 50.5221L48.8077 51.2037L47.3259 49.4924ZM46.314 37.8196L46.3974 37.9347L47.1287 38.8558L46.314 37.8196ZM46.3974 37.9347L46.4745 38.0677L47.2121 38.9708L46.3974 37.9347ZM47.9939 50.1743L48.8077 51.2037L49.502 51.8159L47.9939 50.1743ZM46.4745 38.0677L46.5469 38.2192L47.2891 39.1037L46.4745 38.0677ZM46.5469 38.2192L46.616 38.3897L47.3614 39.2552L46.5469 38.2192ZM56.7085 44.2298L57.5174 45.2626L57.5122 45.1168L56.7085 44.2298ZM46.616 38.3897L46.6835 38.5797L47.4306 39.4256L46.616 38.3897ZM56.7234 44.3594L57.5323 45.392L57.5174 45.2626L56.7234 44.3594ZM56.7467 44.4733L57.5556 45.5059L57.5323 45.392L56.7467 44.4733ZM56.7773 44.5723L57.5862 45.6048L57.5556 45.5059L56.7773 44.5723ZM56.814 44.657L57.6229 45.6895L57.5862 45.6048L56.814 44.657ZM56.8556 44.7282L57.6644 45.7606L57.6229 45.6895L56.8556 44.7282ZM48.6885 50.7869L49.502 51.8159L50.2187 52.358L48.6885 50.7869ZM46.6835 38.5797L47.0468 39.5956L47.498 39.6155L46.6835 38.5797ZM56.9009 44.7864L57.7097 45.8188L57.6644 45.7606L56.9009 44.7864ZM66.8359 37.4649L67.6391 38.5015L67.5851 38.4013L66.8359 37.4649ZM66.8694 37.5775L67.6726 38.614L67.6391 38.5015L66.8694 37.5775ZM66.8836 37.7012L67.6868 38.7377L67.6726 38.614L66.8836 37.7012ZM66.8796 37.8352L67.6827 38.8716L67.6868 38.7377L66.8796 37.8352ZM66.8583 37.9783L67.6615 39.0146L67.6827 38.8716L66.8583 37.9783ZM49.4056 51.3293L50.2187 52.358L50.9534 52.8289L49.4056 51.3293ZM66.821 38.1296L67.6242 39.1658L67.6615 39.0146L66.821 38.1296ZM47.0468 39.5956L47.4414 40.5783L47.8611 40.6308L47.0468 39.5956ZM66.6713 38.6204L67.4746 39.6563L67.6242 39.1658L66.6713 38.6204ZM66.416 39.2216L67.2194 40.2572L67.4746 39.6563L66.416 39.2216ZM50.1407 51.8004L50.9534 52.8289L51.7019 53.2276L50.1407 51.8004ZM66.0776 39.9041L66.8812 40.9394L67.2194 40.2572L66.0776 39.9041ZM47.4414 40.5783L47.8594 41.5173L48.2555 41.613L47.4414 40.5783ZM65.6788 40.6387L66.4826 41.6736L66.8812 40.9394L65.6788 40.6387ZM50.8896 52.1994L51.7019 53.2276L52.4597 53.5534L50.8896 52.1994ZM65.2422 41.3963L66.0463 42.4307L66.4826 41.6736L65.2422 41.3963ZM51.1374 38.7959L51.0149 38.6412L51.9494 39.8316L51.1374 38.7959ZM64.7903 42.1475L65.5947 43.1815L66.0463 42.4307L64.7903 42.1475ZM56.9216 48.4232L57.7304 49.4536L57.8059 49.4034L56.9216 48.4232ZM56.8587 48.4889L57.6676 49.5192L57.7304 49.4536L56.8587 48.4889ZM56.9971 48.3729L57.8059 49.4034L57.8947 49.3667L56.9971 48.3729ZM56.8076 48.5716L57.6165 49.6019L57.6676 49.5192L56.8076 48.5716ZM57.0859 48.3362L57.8947 49.3667L57.9977 49.3419L57.0859 48.3362ZM56.7676 48.6731L57.5765 49.7034L57.6165 49.6019L56.7676 48.6731ZM57.189 48.3114L57.9977 49.3419L58.1156 49.3272L57.189 48.3114ZM47.8594 41.5173L48.2926 42.402L48.6732 42.5515L47.8594 41.5173ZM64.3459 42.8632L65.1505 43.8968L65.5947 43.1815L64.3459 42.8632ZM56.7378 48.7951L57.5468 49.8253L57.5765 49.7034L56.7378 48.7951ZM57.307 48.2967L58.1156 49.3272L58.2492 49.3209L57.307 48.2967ZM51.6479 52.5253L52.4597 53.5534L53.2227 53.8053L51.6479 52.5253ZM57.4407 48.2904L58.2492 49.3209L58.36 49.324L57.4407 48.2904ZM56.7175 48.9395L57.5265 49.9696L57.5468 49.8253L56.7175 48.9395ZM57.5515 48.2935L58.36 49.324L58.4856 49.3401L57.5515 48.2935ZM56.7059 49.1079L57.5149 50.1379L57.5265 49.9696L56.7059 49.1079ZM63.9315 43.5142L64.7364 44.5474L65.1505 43.8968L63.9315 43.5142ZM57.6772 48.3096L58.4856 49.3401L58.6283 49.3735L57.6772 48.3096ZM56.7023 49.302L57.5112 50.3319L57.5149 50.1379L56.7023 49.302ZM57.82 48.3431L58.6283 49.3735L58.7904 49.4284L57.82 48.3431ZM63.5698 44.0713L64.3749 45.1042L64.7364 44.5474L63.5698 44.0713ZM57.9821 48.3979L58.7904 49.4284L58.974 49.5089L57.9821 48.3979ZM63.2833 44.5053L64.0886 45.5379L64.3749 45.1042L63.2833 44.5053ZM52.4113 52.7773L53.2227 53.8053L53.9865 53.9822L52.4113 52.7773ZM58.1659 48.4785L58.974 49.5089L59.1816 49.6194L58.1659 48.4785ZM63.0947 44.787L63.9001 45.8195L64.0886 45.5379L63.0947 44.787ZM63.0266 44.8871L63.832 45.9196L63.9001 45.8195L63.0266 44.8871ZM62.9562 45.007L63.7616 46.0394L63.832 45.9196L62.9562 45.007ZM48.2926 42.402L48.7331 43.2218L49.1062 43.4357L48.2926 42.402ZM62.8944 45.1183L63.6999 46.1506L63.7616 46.0394L62.8944 45.1183ZM58.3736 48.589L59.1816 49.6194L59.4154 49.7639L58.3736 48.589ZM62.8425 45.2229L63.648 46.2552L63.6999 46.1506L62.8425 45.2229ZM62.8017 45.3229L63.6072 46.3551L63.648 46.2552L62.8017 45.3229ZM62.7732 45.42L63.5788 46.4521L63.6072 46.3551L62.7732 45.42ZM62.7585 45.5162L63.564 46.5483L63.5788 46.4521L62.7585 45.5162ZM62.7586 45.6134L63.5641 46.6454L63.564 46.5483L62.7586 45.6134ZM58.6075 48.7336L59.4154 49.7639L59.6776 49.9468L58.6075 48.7336ZM53.1755 52.9544L53.9865 53.9822L54.7467 54.0834L53.1755 52.9544ZM62.7749 45.7135L63.5804 46.7455L63.5641 46.6454L62.7749 45.7135ZM62.8086 45.8185L63.6141 46.8505L63.5804 46.7455L62.8086 45.8185ZM62.8609 45.9303L63.6664 46.9621L63.6141 46.8505L62.8609 45.9303ZM58.8698 48.9166L59.6776 49.9468L59.9705 50.1722L58.8698 48.9166ZM62.9333 46.0507L63.7387 47.0825L63.6664 46.9621L62.9333 46.0507ZM56.7024 51.9099L57.5114 52.9384L57.5112 50.3319L56.7024 51.9099ZM48.7331 43.2218L49.1728 43.966L49.5465 44.255L48.7331 43.2218ZM63.0268 46.1817L63.8322 47.2134L63.7387 47.0825L63.0268 46.1817ZM53.9362 53.0555L54.7467 54.0834L55.4991 54.1078L53.9362 53.0555ZM56.5246 37.516L56.5818 37.61L57.3336 38.5525L56.5246 37.516ZM59.1629 49.1421L59.9705 50.1722L60.2965 50.4443L59.1629 49.1421ZM63.1155 46.2965L63.9208 47.3281L63.8322 47.2134L63.1155 46.2965ZM56.5818 37.61L56.6271 37.72L57.3907 38.6464L56.5818 37.61ZM56.6271 37.72L56.6612 37.8461L57.436 38.7563L56.6271 37.72ZM54.689 53.08L55.4991 54.1078L55.915 54.0912L54.689 53.08ZM56.6612 37.8461L56.6848 37.9887L57.4701 38.8824L56.6612 37.8461ZM56.6848 37.9887L56.6985 38.1481L57.4937 39.0249L56.6848 37.9887ZM59.489 49.4144L60.2965 50.4443L60.6577 50.7674L59.489 49.4144ZM55.1051 53.0634L55.915 54.0912L56.2701 54.059L55.1051 53.0634ZM56.6985 38.1481L56.703 38.3245L57.5074 39.1842L56.6985 38.1481ZM56.697 52.0828L57.506 53.1112L57.5114 52.9384L56.697 52.0828ZM55.4604 53.0312L56.2701 54.059L56.5692 54.0113L55.4604 53.0312ZM49.1728 43.966L49.6037 44.6241L49.9859 44.9988L49.1728 43.966ZM56.6777 52.243L57.4868 53.2712L57.506 53.1112L56.6777 52.243ZM55.7597 52.9834L56.5692 54.0113L56.8169 53.9485L55.7597 52.9834ZM56.6398 52.3901L57.4489 53.4183L57.4868 53.2712L56.6398 52.3901ZM56.5787 52.524L57.3878 53.5522L57.4489 53.4183L56.5787 52.524ZM56.0075 52.9206L56.8169 53.9485L57.0179 53.8709L56.0075 52.9206ZM59.8505 49.7377L60.6577 50.7674L61.0564 51.1458L59.8505 49.7377ZM56.4896 52.6443L57.2987 53.6724L57.3878 53.5522L56.4896 52.6443ZM56.2087 52.8429L57.0179 53.8709L57.177 53.7787L56.2087 52.8429ZM56.3678 52.7507L57.177 53.7787L57.2987 53.6724L56.3678 52.7507ZM49.6037 44.6241L50.0177 45.1855L50.4166 45.6565L49.6037 44.6241ZM60.2494 50.1162L61.0564 51.1458L61.5023 51.6073L60.2494 50.1162ZM60.6956 50.578L61.5023 51.6073L61.89 52.0254L60.6956 50.578ZM56.703 38.3245L56.7033 44.084L57.5118 39.3605L56.703 38.3245ZM61.0834 50.9963L61.89 52.0254L62.2275 52.4006L61.0834 50.9963ZM61.4212 51.3717L62.2275 52.4006L62.5231 52.7334L61.4212 51.3717ZM47.3259 49.4924L46.6889 48.7421L48.1401 50.5221L47.3259 49.4924ZM61.7169 51.7048L62.5231 52.7334L62.7849 53.0245L61.7169 51.7048ZM61.9789 51.996L62.7849 53.0245L63.0212 53.2743L61.9789 51.996ZM47.9939 50.1743L47.3259 49.4924L48.8077 51.2037L47.9939 50.1743ZM62.2152 52.246L63.0212 53.2743L63.2399 53.4835L62.2152 52.246ZM62.4341 52.4552L63.2399 53.4835L63.4494 53.6524L62.4341 52.4552ZM66.3038 49.8451L67.1074 50.8748L66.8732 50.5745L66.3038 49.8451ZM62.6437 52.6243L63.4494 53.6524L63.6578 53.7817L62.6437 52.6243ZM62.8522 52.7536L63.6578 53.7817L63.8732 53.8719L62.8522 52.7536ZM66.5195 50.1343L67.323 51.1638L67.1074 50.8748L66.5195 50.1343ZM48.6885 50.7869L47.9939 50.1743L49.502 51.8159L48.6885 50.7869ZM56.7033 44.084L56.7085 44.2298L57.5122 45.1168L56.7033 44.084ZM63.0678 52.8439L63.8732 53.8719L64.1039 53.9236L63.0678 52.8439ZM56.7085 44.2298L56.7234 44.3594L57.5174 45.2626L56.7085 44.2298ZM66.7151 50.4115L67.5185 51.4409L67.323 51.1638L66.7151 50.4115ZM63.2986 52.8956L64.1039 53.9236L64.3579 53.9373L63.2986 52.8956ZM56.7234 44.3594L56.7467 44.4733L57.5323 45.392L56.7234 44.3594ZM56.7467 44.4733L56.7773 44.5723L57.5556 45.5059L56.7467 44.4733ZM56.7773 44.5723L56.814 44.657L57.5862 45.6048L56.7773 44.5723ZM56.814 44.657L56.8556 44.7282L57.6229 45.6895L56.814 44.657ZM66.8896 50.6764L67.6929 51.7056L67.5185 51.4409L66.8896 50.6764ZM56.8556 44.7282L56.9009 44.7864L57.6644 45.7606L56.8556 44.7282ZM67.0415 50.9283L67.8447 51.9574L67.6929 51.7056L67.0415 50.9283ZM49.4056 51.3293L48.6885 50.7869L50.2187 52.358L49.4056 51.3293ZM63.5528 52.9093L64.3579 53.9373L67.177 53.8835L63.5528 52.9093ZM66.782 37.3646L66.8359 37.4649L67.5851 38.4013L66.782 37.3646ZM66.8359 37.4649L66.8694 37.5775L67.6391 38.5015L66.8359 37.4649ZM67.1698 51.1668L67.9729 52.1958L67.8447 51.9574L67.1698 51.1668ZM66.8694 37.5775L66.8836 37.7012L67.6726 38.614L66.8694 37.5775ZM66.8836 37.7012L66.8796 37.8352L67.6868 38.7377L66.8836 37.7012ZM67.273 51.3914L68.076 52.4203L67.9729 52.1958L67.273 51.3914ZM66.8796 37.8352L66.8583 37.9783L67.6827 38.8716L66.8796 37.8352ZM66.8583 37.9783L66.821 38.1296L67.6615 39.0146L66.8583 37.9783ZM67.3499 51.6016L68.153 52.6304L68.076 52.4203L67.3499 51.6016ZM66.821 38.1296L66.6713 38.6204L67.6242 39.1658L66.821 38.1296ZM50.1407 51.8004L49.4056 51.3293L50.9534 52.8289L50.1407 51.8004ZM67.3948 51.7973L68.1978 52.8259L68.153 52.6304L67.3948 51.7973ZM67.414 51.9766L68.217 53.0051L68.1978 52.8259L67.414 51.9766ZM66.6713 38.6204L66.416 39.2216L67.4746 39.6563L66.6713 38.6204ZM67.4084 52.1394L68.2114 53.1678L68.217 53.0051L67.4084 52.1394ZM66.3735 52.8554L67.177 53.8835L67.3698 53.8712L66.3735 52.8554ZM66.5663 52.8431L67.3698 53.8712L67.545 53.8419L66.5663 52.8431ZM67.3788 52.2857L68.1818 53.3141L68.2114 53.1678L67.3788 52.2857ZM66.7416 52.8139L67.545 53.8419L67.7018 53.7958L66.7416 52.8139ZM67.326 52.4154L68.129 53.4437L68.1818 53.3141L67.326 52.4154ZM66.416 39.2216L66.0776 39.9041L67.2194 40.2572L66.416 39.2216ZM66.8985 52.7677L67.7018 53.7958L67.8394 53.7329L66.8985 52.7677ZM67.2507 52.5286L68.0538 53.5568L68.129 53.4437L67.2507 52.5286ZM67.0362 52.7048L67.8394 53.7329L67.957 53.6532L67.0362 52.7048ZM67.1538 52.625L67.957 53.6532L68.0538 53.5568L67.1538 52.625ZM50.8896 52.1994L50.1407 51.8004L51.7019 53.2276L50.8896 52.1994ZM66.0776 39.9041L65.6788 40.6387L66.8812 40.9394L66.0776 39.9041ZM65.6788 40.6387L65.2422 41.3963L66.4826 41.6736L65.6788 40.6387ZM65.2422 41.3963L64.7903 42.1475L66.0463 42.4307L65.2422 41.3963ZM51.6479 52.5253L50.8896 52.1994L52.4597 53.5534L51.6479 52.5253ZM56.9216 48.4232L56.8587 48.4889L57.7304 49.4536L56.9216 48.4232ZM56.9971 48.3729L56.9216 48.4232L57.8059 49.4034L56.9971 48.3729ZM64.7903 42.1475L64.3459 42.8632L65.5947 43.1815L64.7903 42.1475ZM56.8587 48.4889L56.8076 48.5716L57.6676 49.5192L56.8587 48.4889ZM57.0859 48.3362L56.9971 48.3729L57.8947 49.3667L57.0859 48.3362ZM57.189 48.3114L57.0859 48.3362L57.9977 49.3419L57.189 48.3114ZM56.8076 48.5716L56.7676 48.6731L57.6165 49.6019L56.8076 48.5716ZM57.307 48.2967L57.189 48.3114L58.1156 49.3272L57.307 48.2967ZM56.7676 48.6731L56.7378 48.7951L57.5765 49.7034L56.7676 48.6731ZM57.4407 48.2904L57.307 48.2967L58.2492 49.3209L57.4407 48.2904ZM56.7378 48.7951L56.7175 48.9395L57.5468 49.8253L56.7378 48.7951ZM57.5515 48.2935L57.4407 48.2904L58.36 49.324L57.5515 48.2935ZM64.3459 42.8632L63.9315 43.5142L65.1505 43.8968L64.3459 42.8632ZM56.7175 48.9395L56.7059 49.1079L57.5265 49.9696L56.7175 48.9395ZM57.6772 48.3096L57.5515 48.2935L58.4856 49.3401L57.6772 48.3096ZM52.4113 52.7773L51.6479 52.5253L53.2227 53.8053L52.4113 52.7773ZM57.82 48.3431L57.6772 48.3096L58.6283 49.3735L57.82 48.3431ZM56.7059 49.1079L56.7023 49.302L57.5149 50.1379L56.7059 49.1079ZM63.9315 43.5142L63.5698 44.0713L64.7364 44.5474L63.9315 43.5142ZM57.9821 48.3979L57.82 48.3431L58.7904 49.4284L57.9821 48.3979ZM63.5698 44.0713L63.2833 44.5053L64.3749 45.1042L63.5698 44.0713ZM58.1659 48.4785L57.9821 48.3979L58.974 49.5089L58.1659 48.4785ZM63.2833 44.5053L63.0947 44.787L64.0886 45.5379L63.2833 44.5053ZM58.3736 48.589L58.1659 48.4785L59.1816 49.6194L58.3736 48.589ZM63.0947 44.787L63.0266 44.8871L63.9001 45.8195L63.0947 44.787ZM63.0266 44.8871L62.9562 45.007L63.832 45.9196L63.0266 44.8871ZM53.1755 52.9544L52.4113 52.7773L53.9865 53.9822L53.1755 52.9544ZM62.9562 45.007L62.8944 45.1183L63.7616 46.0394L62.9562 45.007ZM62.8944 45.1183L62.8425 45.2229L63.6999 46.1506L62.8944 45.1183ZM62.8425 45.2229L62.8017 45.3229L63.648 46.2552L62.8425 45.2229ZM58.6075 48.7336L58.3736 48.589L59.4154 49.7639L58.6075 48.7336ZM62.8017 45.3229L62.7732 45.42L63.6072 46.3551L62.8017 45.3229ZM56.7023 49.302L56.7024 51.9099L57.5112 50.3319L56.7023 49.302ZM62.7732 45.42L62.7585 45.5162L63.5788 46.4521L62.7732 45.42ZM62.7585 45.5162L62.7586 45.6134L63.564 46.5483L62.7585 45.5162ZM62.7586 45.6134L62.7749 45.7135L63.5641 46.6454L62.7586 45.6134ZM58.8698 48.9166L58.6075 48.7336L59.6776 49.9468L58.8698 48.9166ZM62.7749 45.7135L62.8086 45.8185L63.5804 46.7455L62.7749 45.7135ZM53.9362 53.0555L53.1755 52.9544L54.7467 54.0834L53.9362 53.0555ZM62.8086 45.8185L62.8609 45.9303L63.6141 46.8505L62.8086 45.8185ZM62.8609 45.9303L62.9333 46.0507L63.6664 46.9621L62.8609 45.9303ZM59.1629 49.1421L58.8698 48.9166L59.9705 50.1722L59.1629 49.1421ZM62.9333 46.0507L63.0268 46.1817L63.7387 47.0825L62.9333 46.0507ZM63.0268 46.1817L63.1155 46.2965L63.8322 47.2134L63.0268 46.1817ZM54.689 53.08L53.9362 53.0555L55.4991 54.1078L54.689 53.08ZM59.489 49.4144L59.1629 49.1421L60.2965 50.4443L59.489 49.4144ZM55.1051 53.0634L54.689 53.08L55.915 54.0912L55.1051 53.0634ZM56.7024 51.9099L56.697 52.0828L57.5114 52.9384L56.7024 51.9099ZM55.4604 53.0312L55.1051 53.0634L56.2701 54.059L55.4604 53.0312ZM59.8505 49.7377L59.489 49.4144L60.6577 50.7674L59.8505 49.7377ZM56.697 52.0828L56.6777 52.243L57.506 53.1112L56.697 52.0828ZM55.7597 52.9834L55.4604 53.0312L56.5692 54.0113L55.7597 52.9834ZM56.6777 52.243L56.6398 52.3901L57.4868 53.2712L56.6777 52.243ZM56.0075 52.9206L55.7597 52.9834L56.8169 53.9485L56.0075 52.9206ZM56.6398 52.3901L56.5787 52.524L57.4489 53.4183L56.6398 52.3901ZM56.2087 52.8429L56.0075 52.9206L57.0179 53.8709L56.2087 52.8429ZM56.5787 52.524L56.4896 52.6443L57.3878 53.5522L56.5787 52.524ZM56.3678 52.7507L56.2087 52.8429L57.177 53.7787L56.3678 52.7507ZM56.4896 52.6443L56.3678 52.7507L57.2987 53.6724L56.4896 52.6443ZM60.2494 50.1162L59.8505 49.7377L61.0564 51.1458L60.2494 50.1162ZM60.6956 50.578L60.2494 50.1162L61.5023 51.6073L60.6956 50.578ZM61.0834 50.9963L60.6956 50.578L61.89 52.0254L61.0834 50.9963ZM61.4212 51.3717L61.0834 50.9963L62.2275 52.4006L61.4212 51.3717ZM61.7169 51.7048L61.4212 51.3717L62.5231 52.7334L61.7169 51.7048ZM61.9789 51.996L61.7169 51.7048L62.7849 53.0245L61.9789 51.996ZM62.2152 52.246L61.9789 51.996L63.0212 53.2743L62.2152 52.246ZM62.4341 52.4552L62.2152 52.246L63.2399 53.4835L62.4341 52.4552ZM66.0695 49.5446L66.3038 49.8451L66.8732 50.5745L66.0695 49.5446ZM62.6437 52.6243L62.4341 52.4552L63.4494 53.6524L62.6437 52.6243ZM45.5819 36.8974L46.3974 37.9347L46.314 37.8196L45.5819 36.8974ZM45.659 37.0305L46.4745 38.0677L46.3974 37.9347L45.659 37.0305ZM62.8522 52.7536L62.6437 52.6243L63.6578 53.7817L62.8522 52.7536ZM66.3038 49.8451L66.5195 50.1343L67.1074 50.8748L66.3038 49.8451ZM45.7314 37.1821L46.5469 38.2192L46.4745 38.0677L45.7314 37.1821ZM63.0678 52.8439L62.8522 52.7536L63.8732 53.8719L63.0678 52.8439ZM45.8006 37.3527L46.616 38.3897L46.5469 38.2192L45.8006 37.3527ZM66.5195 50.1343L66.7151 50.4115L67.323 51.1638L66.5195 50.1343ZM63.2986 52.8956L63.0678 52.8439L64.1039 53.9236L63.2986 52.8956ZM45.8681 37.5428L46.6835 38.5797L46.616 38.3897L45.8681 37.5428ZM63.5528 52.9093L63.2986 52.8956L64.3579 53.9373L63.5528 52.9093ZM66.7151 50.4115L66.8896 50.6764L67.5185 51.4409L66.7151 50.4115ZM66.8896 50.6764L67.0415 50.9283L67.6929 51.7056L66.8896 50.6764ZM46.2316 38.5592L47.0468 39.5956L46.6835 38.5797L46.2316 38.5592ZM67.0415 50.9283L67.1698 51.1668L67.8447 51.9574L67.0415 50.9283ZM67.1698 51.1668L67.273 51.3914L67.9729 52.1958L67.1698 51.1668ZM66.3735 52.8554L63.5528 52.9093L67.177 53.8835L66.3735 52.8554ZM67.273 51.3914L67.3499 51.6016L68.076 52.4203L67.273 51.3914ZM67.3499 51.6016L67.3948 51.7973L68.153 52.6304L67.3499 51.6016ZM67.3948 51.7973L67.414 51.9766L68.1978 52.8259L67.3948 51.7973ZM46.6264 39.5425L47.4414 40.5783L47.0468 39.5956L46.6264 39.5425ZM67.414 51.9766L67.4084 52.1394L68.217 53.0051L67.414 51.9766ZM66.5663 52.8431L66.3735 52.8554L67.3698 53.8712L66.5663 52.8431ZM67.4084 52.1394L67.3788 52.2857L68.2114 53.1678L67.4084 52.1394ZM66.7416 52.8139L66.5663 52.8431L67.545 53.8419L66.7416 52.8139ZM67.3788 52.2857L67.326 52.4154L68.1818 53.3141L67.3788 52.2857ZM66.8985 52.7677L66.7416 52.8139L67.7018 53.7958L66.8985 52.7677ZM67.326 52.4154L67.2507 52.5286L68.129 53.4437L67.326 52.4154ZM67.0362 52.7048L66.8985 52.7677L67.8394 53.7329L67.0362 52.7048ZM67.2507 52.5286L67.1538 52.625L68.0538 53.5568L67.2507 52.5286ZM67.1538 52.625L67.0362 52.7048L67.957 53.6532L67.1538 52.625ZM47.0446 40.482L47.8594 41.5173L47.4414 40.5783L47.0446 40.482ZM50.202 37.6043L51.0149 38.6412L51.1374 38.7959L50.202 37.6043ZM47.4781 41.3672L48.2926 42.402L47.8594 41.5173L47.4781 41.3672ZM47.9188 42.1874L48.7331 43.2218L48.2926 42.402L47.9188 42.1874ZM55.7719 36.5724L56.5818 37.61L56.5246 37.516L55.7719 36.5724ZM55.8173 36.6824L56.6271 37.72L56.5818 37.61L55.8173 36.6824ZM48.3587 42.932L49.1728 43.966L48.7331 43.2218L48.3587 42.932ZM55.8515 36.8086L56.6612 37.8461L56.6271 37.72L55.8515 36.8086ZM55.8751 36.9513L56.6848 37.9887L56.6612 37.8461L55.8751 36.9513ZM55.8888 37.1108L56.6985 38.1481L56.6848 37.9887L55.8888 37.1108ZM55.8932 37.2873L56.703 38.3245L56.6985 38.1481L55.8932 37.2873ZM48.7899 43.5905L49.6037 44.6241L49.1728 43.966L48.7899 43.5905ZM49.2041 44.1522L50.0177 45.1855L49.6037 44.6241L49.2041 44.1522ZM45.8734 47.7108L46.6889 48.7421L47.3259 49.4924L45.8734 47.7108ZM55.8934 43.05L56.7033 44.084L56.703 38.3245L55.8934 43.05ZM46.5107 48.4615L47.3259 49.4924L47.9939 50.1743L46.5107 48.4615ZM45.4984 36.7822L45.5819 36.8974L46.314 37.8196L45.4984 36.7822ZM45.5819 36.8974L45.659 37.0305L46.3974 37.9347L45.5819 36.8974ZM47.1791 49.1438L47.9939 50.1743L48.6885 50.7869L47.1791 49.1438ZM45.659 37.0305L45.7314 37.1821L46.4745 38.0677L45.659 37.0305ZM45.7314 37.1821L45.8006 37.3527L46.5469 38.2192L45.7314 37.1821ZM55.8987 43.1959L56.7085 44.2298L56.7033 44.084L55.8987 43.1959ZM45.8006 37.3527L45.8681 37.5428L46.616 38.3897L45.8006 37.3527ZM55.9135 43.3255L56.7234 44.3594L56.7085 44.2298L55.9135 43.3255ZM55.9369 43.4395L56.7467 44.4733L56.7234 44.3594L55.9369 43.4395ZM55.9675 43.5386L56.7773 44.5723L56.7467 44.4733L55.9675 43.5386ZM56.0042 43.6233L56.814 44.657L56.7773 44.5723L56.0042 43.6233ZM56.0458 43.6945L56.8556 44.7282L56.814 44.657L56.0458 43.6945ZM47.8741 49.7568L48.6885 50.7869L49.4056 51.3293L47.8741 49.7568ZM45.8681 37.5428L46.2316 38.5592L46.6835 38.5797L45.8681 37.5428ZM56.0912 43.7528L56.9009 44.7864L56.8556 44.7282L56.0912 43.7528ZM66.0318 36.4272L66.8359 37.4649L66.782 37.3646L66.0318 36.4272ZM66.0654 36.5397L66.8694 37.5775L66.8359 37.4649L66.0654 36.5397ZM66.0796 36.6636L66.8836 37.7012L66.8694 37.5775L66.0796 36.6636ZM66.0755 36.7976L66.8796 37.8352L66.8836 37.7012L66.0755 36.7976ZM66.0543 36.9408L66.8583 37.9783L66.8796 37.8352L66.0543 36.9408ZM48.5916 50.2994L49.4056 51.3293L50.1407 51.8004L48.5916 50.2994ZM66.0169 37.0922L66.821 38.1296L66.8583 37.9783L66.0169 37.0922ZM46.2316 38.5592L46.6264 39.5425L47.0468 39.5956L46.2316 38.5592ZM65.8671 37.5832L66.6713 38.6204L66.821 38.1296L65.8671 37.5832ZM65.6116 38.1848L66.416 39.2216L66.6713 38.6204L65.6116 38.1848ZM49.3271 50.7708L50.1407 51.8004L50.8896 52.1994L49.3271 50.7708ZM65.2731 38.8677L66.0776 39.9041L66.416 39.2216L65.2731 38.8677ZM46.6264 39.5425L47.0446 40.482L47.4414 40.5783L46.6264 39.5425ZM64.874 39.6027L65.6788 40.6387L66.0776 39.9041L64.874 39.6027ZM50.0764 51.17L50.8896 52.1994L51.6479 52.5253L50.0764 51.17ZM64.4371 40.3607L65.2422 41.3963L65.6788 40.6387L64.4371 40.3607ZM50.3245 37.7591L50.202 37.6043L51.1374 38.7959L50.3245 37.7591ZM63.9851 41.1123L64.7903 42.1475L65.2422 41.3963L63.9851 41.1123ZM56.1118 47.3917L56.9216 48.4232L56.9971 48.3729L56.1118 47.3917ZM56.0489 47.4573L56.8587 48.4889L56.9216 48.4232L56.0489 47.4573ZM56.1873 47.3413L56.9971 48.3729L57.0859 48.3362L56.1873 47.3413ZM55.9978 47.5401L56.8076 48.5716L56.8587 48.4889L55.9978 47.5401ZM56.2763 47.3046L57.0859 48.3362L57.189 48.3114L56.2763 47.3046ZM55.9578 47.6416L56.7676 48.6731L56.8076 48.5716L55.9578 47.6416ZM56.3794 47.2798L57.189 48.3114L57.307 48.2967L56.3794 47.2798ZM47.0446 40.482L47.4781 41.3672L47.8594 41.5173L47.0446 40.482ZM63.5404 41.8284L64.3459 42.8632L64.7903 42.1475L63.5404 41.8284ZM55.928 47.7638L56.7378 48.7951L56.7676 48.6731L55.928 47.7638ZM56.4974 47.265L57.307 48.2967L57.4407 48.2904L56.4974 47.265ZM50.8351 51.4961L51.6479 52.5253L52.4113 52.7773L50.8351 51.4961ZM56.6312 47.2587L57.4407 48.2904L57.5515 48.2935L56.6312 47.2587ZM55.9077 47.9082L56.7175 48.9395L56.7378 48.7951L55.9077 47.9082ZM56.7421 47.2618L57.5515 48.2935L57.6772 48.3096L56.7421 47.2618ZM55.8961 48.0767L56.7059 49.1079L56.7175 48.9395L55.8961 48.0767ZM63.1258 42.4798L63.9315 43.5142L64.3459 42.8632L63.1258 42.4798ZM56.8679 47.278L57.6772 48.3096L57.82 48.3431L56.8679 47.278ZM55.8924 48.2709L56.7023 49.302L56.7059 49.1079L55.8924 48.2709ZM57.0107 47.3114L57.82 48.3431L57.9821 48.3979L57.0107 47.3114ZM62.7638 43.0372L63.5698 44.0713L63.9315 43.5142L62.7638 43.0372ZM57.173 47.3663L57.9821 48.3979L58.1659 48.4785L57.173 47.3663ZM62.4772 43.4714L63.2833 44.5053L63.5698 44.0713L62.4772 43.4714ZM51.5989 51.7482L52.4113 52.7773L53.1755 52.9544L51.5989 51.7482ZM57.3568 47.447L58.1659 48.4785L58.3736 48.589L57.3568 47.447ZM62.2885 43.7533L63.0947 44.787L63.2833 44.5053L62.2885 43.7533ZM62.2203 43.8535L63.0266 44.8871L63.0947 44.787L62.2203 43.8535ZM62.1499 43.9734L62.9562 45.007L63.0266 44.8871L62.1499 43.9734ZM47.4781 41.3672L47.9188 42.1874L48.2926 42.402L47.4781 41.3672ZM62.0881 44.0848L62.8944 45.1183L62.9562 45.007L62.0881 44.0848ZM57.5646 47.5575L58.3736 48.589L58.6075 48.7336L57.5646 47.5575ZM62.0361 44.1895L62.8425 45.2229L62.8944 45.1183L62.0361 44.1895ZM61.9952 44.2895L62.8017 45.3229L62.8425 45.2229L61.9952 44.2895ZM61.9668 44.3867L62.7732 45.42L62.8017 45.3229L61.9668 44.3867ZM61.952 44.4829L62.7585 45.5162L62.7732 45.42L61.952 44.4829ZM61.9521 44.5802L62.7586 45.6134L62.7585 45.5162L61.9521 44.5802ZM57.7987 47.7022L58.6075 48.7336L58.8698 48.9166L57.7987 47.7022ZM52.3636 51.9253L53.1755 52.9544L53.9362 53.0555L52.3636 51.9253ZM61.9684 44.6804L62.7749 45.7135L62.7586 45.6134L61.9684 44.6804ZM62.0021 44.7854L62.8086 45.8185L62.7749 45.7135L62.0021 44.7854ZM62.0545 44.8972L62.8609 45.9303L62.8086 45.8185L62.0545 44.8972ZM58.0612 47.8853L58.8698 48.9166L59.1629 49.1421L58.0612 47.8853ZM62.1269 45.0177L62.9333 46.0507L62.8609 45.9303L62.1269 45.0177ZM55.8925 50.8803L56.7024 51.9099L56.7023 49.302L55.8925 50.8803ZM47.9188 42.1874L48.3587 42.932L48.7331 43.2218L47.9188 42.1874ZM62.2205 45.1488L63.0268 46.1817L62.9333 46.0507L62.2205 45.1488ZM53.1247 52.0266L53.9362 53.0555L54.689 53.08L53.1247 52.0266ZM55.7148 36.4784L55.7719 36.5724L56.5246 37.516L55.7148 36.4784ZM58.3544 48.1109L59.1629 49.1421L59.489 49.4144L58.3544 48.1109ZM62.3092 45.2636L63.1155 46.2965L63.0268 46.1817L62.3092 45.2636ZM55.7719 36.5724L55.8173 36.6824L56.5818 37.61L55.7719 36.5724ZM55.8173 36.6824L55.8515 36.8086L56.6271 37.72L55.8173 36.6824ZM53.8779 52.051L54.689 53.08L55.1051 53.0634L53.8779 52.051ZM55.8515 36.8086L55.8751 36.9513L56.6612 37.8461L55.8515 36.8086ZM55.8751 36.9513L55.8888 37.1108L56.6848 37.9887L55.8751 36.9513ZM58.6807 48.3834L59.489 49.4144L59.8505 49.7377L58.6807 48.3834ZM54.2942 52.0344L55.1051 53.0634L55.4604 53.0312L54.2942 52.0344ZM55.8888 37.1108L55.8932 37.2873L56.6985 38.1481L55.8888 37.1108ZM55.8871 51.0532L56.697 52.0828L56.7024 51.9099L55.8871 51.0532ZM54.6498 52.0021L55.4604 53.0312L55.7597 52.9834L54.6498 52.0021ZM48.3587 42.932L48.7899 43.5905L49.1728 43.966L48.3587 42.932ZM55.8678 51.2135L56.6777 52.243L56.697 52.0828L55.8678 51.2135ZM54.9492 51.9544L55.7597 52.9834L56.0075 52.9206L54.9492 51.9544ZM55.8299 51.3608L56.6398 52.3901L56.6777 52.243L55.8299 51.3608ZM55.7687 51.4947L56.5787 52.524L56.6398 52.3901L55.7687 51.4947ZM55.1972 51.8915L56.0075 52.9206L56.2087 52.8429L55.1972 51.8915ZM59.0423 48.7068L59.8505 49.7377L60.2494 50.1162L59.0423 48.7068ZM55.6795 51.6151L56.4896 52.6443L56.5787 52.524L55.6795 51.6151ZM55.3984 51.8138L56.2087 52.8429L56.3678 52.7507L55.3984 51.8138ZM55.5577 51.7216L56.3678 52.7507L56.4896 52.6443L55.5577 51.7216ZM48.7899 43.5905L49.2041 44.1522L49.6037 44.6241L48.7899 43.5905ZM59.4415 49.0856L60.2494 50.1162L60.6956 50.578L59.4415 49.0856ZM59.8879 49.5476L60.6956 50.578L61.0834 50.9963L59.8879 49.5476ZM55.8932 37.2873L55.8934 43.05L56.703 38.3245L55.8932 37.2873ZM60.276 49.9661L61.0834 50.9963L61.4212 51.3717L60.276 49.9661ZM60.6139 50.3418L61.4212 51.3717L61.7169 51.7048L60.6139 50.3418ZM46.5107 48.4615L45.8734 47.7108L47.3259 49.4924L46.5107 48.4615ZM60.9098 50.675L61.7169 51.7048L61.9789 51.996L60.9098 50.675ZM61.1719 50.9664L61.9789 51.996L62.2152 52.246L61.1719 50.9664ZM47.1791 49.1438L46.5107 48.4615L47.9939 50.1743L47.1791 49.1438ZM61.4084 51.2165L62.2152 52.246L62.4341 52.4552L61.4084 51.2165ZM61.6274 51.4258L62.4341 52.4552L62.6437 52.6243L61.6274 51.4258ZM65.4993 48.8142L66.3038 49.8451L66.0695 49.5446L65.4993 48.8142ZM61.8371 51.5949L62.6437 52.6243L62.8522 52.7536L61.8371 51.5949ZM62.0457 51.7244L62.8522 52.7536L63.0678 52.8439L62.0457 51.7244ZM65.7151 49.1035L66.5195 50.1343L66.3038 49.8451L65.7151 49.1035ZM47.8741 49.7568L47.1791 49.1438L48.6885 50.7869L47.8741 49.7568ZM55.8934 43.05L55.8987 43.1959L56.7033 44.084L55.8934 43.05ZM62.2614 51.8147L63.0678 52.8439L63.2986 52.8956L62.2614 51.8147ZM55.8987 43.1959L55.9135 43.3255L56.7085 44.2298L55.8987 43.1959ZM65.9109 49.3809L66.7151 50.4115L66.5195 50.1343L65.9109 49.3809ZM62.4923 51.8665L63.2986 52.8956L63.5528 52.9093L62.4923 51.8665ZM55.9135 43.3255L55.9369 43.4395L56.7234 44.3594L55.9135 43.3255ZM55.9369 43.4395L55.9675 43.5386L56.7467 44.4733L55.9369 43.4395ZM55.9675 43.5386L56.0042 43.6233L56.7773 44.5723L55.9675 43.5386ZM56.0042 43.6233L56.0458 43.6945L56.814 44.657L56.0042 43.6233ZM66.0854 49.6459L66.8896 50.6764L66.7151 50.4115L66.0854 49.6459ZM56.0458 43.6945L56.0912 43.7528L56.8556 44.7282L56.0458 43.6945ZM66.2374 49.898L67.0415 50.9283L66.8896 50.6764L66.2374 49.898ZM48.5916 50.2994L47.8741 49.7568L49.4056 51.3293L48.5916 50.2994ZM62.7467 51.8802L63.5528 52.9093L66.3735 52.8554L62.7467 51.8802ZM65.9778 36.3268L66.0318 36.4272L66.782 37.3646L65.9778 36.3268ZM66.0318 36.4272L66.0654 36.5397L66.8359 37.4649L66.0318 36.4272ZM66.3657 50.1367L67.1698 51.1668L67.0415 50.9283L66.3657 50.1367ZM66.0654 36.5397L66.0796 36.6636L66.8694 37.5775L66.0654 36.5397ZM66.0796 36.6636L66.0755 36.7976L66.8836 37.7012L66.0796 36.6636ZM66.469 50.3614L67.273 51.3914L67.1698 51.1668L66.469 50.3614ZM66.0755 36.7976L66.0543 36.9408L66.8796 37.8352L66.0755 36.7976ZM66.0543 36.9408L66.0169 37.0922L66.8583 37.9783L66.0543 36.9408ZM66.546 50.5717L67.3499 51.6016L67.273 51.3914L66.546 50.5717ZM66.0169 37.0922L65.8671 37.5832L66.821 38.1296L66.0169 37.0922ZM49.3271 50.7708L48.5916 50.2994L50.1407 51.8004L49.3271 50.7708ZM66.5909 50.7675L67.3948 51.7973L67.3499 51.6016L66.5909 50.7675ZM66.6101 50.9468L67.414 51.9766L67.3948 51.7973L66.6101 50.9468ZM65.8671 37.5832L65.6116 38.1848L66.6713 38.6204L65.8671 37.5832ZM66.6045 51.1097L67.4084 52.1394L67.414 51.9766L66.6045 51.1097ZM65.5689 51.8262L66.3735 52.8554L66.5663 52.8431L65.5689 51.8262ZM65.7619 51.8139L66.5663 52.8431L66.7416 52.8139L65.7619 51.8139ZM66.5749 51.2561L67.3788 52.2857L67.4084 52.1394L66.5749 51.2561ZM65.9373 51.7846L66.7416 52.8139L66.8985 52.7677L65.9373 51.7846ZM66.522 51.3859L67.326 52.4154L67.3788 52.2857L66.522 51.3859ZM65.6116 38.1848L65.2731 38.8677L66.416 39.2216L65.6116 38.1848ZM66.0943 51.7384L66.8985 52.7677L67.0362 52.7048L66.0943 51.7384ZM66.4467 51.4991L67.2507 52.5286L67.326 52.4154L66.4467 51.4991ZM66.232 51.6754L67.0362 52.7048L67.1538 52.625L66.232 51.6754ZM66.3498 51.5957L67.1538 52.625L67.2507 52.5286L66.3498 51.5957ZM50.0764 51.17L49.3271 50.7708L50.8896 52.1994L50.0764 51.17ZM65.2731 38.8677L64.874 39.6027L66.0776 39.9041L65.2731 38.8677ZM64.874 39.6027L64.4371 40.3607L65.6788 40.6387L64.874 39.6027ZM64.4371 40.3607L63.9851 41.1123L65.2422 41.3963L64.4371 40.3607ZM50.8351 51.4961L50.0764 51.17L51.6479 52.5253L50.8351 51.4961ZM56.1118 47.3917L56.0489 47.4573L56.9216 48.4232L56.1118 47.3917ZM56.1873 47.3413L56.1118 47.3917L56.9971 48.3729L56.1873 47.3413ZM63.9851 41.1123L63.5404 41.8284L64.7903 42.1475L63.9851 41.1123ZM56.0489 47.4573L55.9978 47.5401L56.8587 48.4889L56.0489 47.4573ZM56.2763 47.3046L56.1873 47.3413L57.0859 48.3362L56.2763 47.3046ZM56.3794 47.2798L56.2763 47.3046L57.189 48.3114L56.3794 47.2798ZM55.9978 47.5401L55.9578 47.6416L56.8076 48.5716L55.9978 47.5401ZM56.4974 47.265L56.3794 47.2798L57.307 48.2967L56.4974 47.265ZM55.9578 47.6416L55.928 47.7638L56.7676 48.6731L55.9578 47.6416ZM56.6312 47.2587L56.4974 47.265L57.4407 48.2904L56.6312 47.2587ZM55.928 47.7638L55.9077 47.9082L56.7378 48.7951L55.928 47.7638ZM56.7421 47.2618L56.6312 47.2587L57.5515 48.2935L56.7421 47.2618ZM63.5404 41.8284L63.1258 42.4798L64.3459 42.8632L63.5404 41.8284ZM55.9077 47.9082L55.8961 48.0767L56.7175 48.9395L55.9077 47.9082ZM56.8679 47.278L56.7421 47.2618L57.6772 48.3096L56.8679 47.278ZM51.5989 51.7482L50.8351 51.4961L52.4113 52.7773L51.5989 51.7482ZM57.0107 47.3114L56.8679 47.278L57.82 48.3431L57.0107 47.3114ZM55.8961 48.0767L55.8924 48.2709L56.7059 49.1079L55.8961 48.0767ZM63.1258 42.4798L62.7638 43.0372L63.9315 43.5142L63.1258 42.4798ZM57.173 47.3663L57.0107 47.3114L57.9821 48.3979L57.173 47.3663ZM62.7638 43.0372L62.4772 43.4714L63.5698 44.0713L62.7638 43.0372ZM57.3568 47.447L57.173 47.3663L58.1659 48.4785L57.3568 47.447ZM62.4772 43.4714L62.2885 43.7533L63.2833 44.5053L62.4772 43.4714ZM57.5646 47.5575L57.3568 47.447L58.3736 48.589L57.5646 47.5575ZM62.2885 43.7533L62.2203 43.8535L63.0947 44.787L62.2885 43.7533ZM62.2203 43.8535L62.1499 43.9734L63.0266 44.8871L62.2203 43.8535ZM52.3636 51.9253L51.5989 51.7482L53.1755 52.9544L52.3636 51.9253ZM62.1499 43.9734L62.0881 44.0848L62.9562 45.007L62.1499 43.9734ZM62.0881 44.0848L62.0361 44.1895L62.8944 45.1183L62.0881 44.0848ZM62.0361 44.1895L61.9952 44.2895L62.8425 45.2229L62.0361 44.1895ZM57.7987 47.7022L57.5646 47.5575L58.6075 48.7336L57.7987 47.7022ZM61.9952 44.2895L61.9668 44.3867L62.8017 45.3229L61.9952 44.2895ZM55.8924 48.2709L55.8925 50.8803L56.7023 49.302L55.8924 48.2709ZM61.9668 44.3867L61.952 44.4829L62.7732 45.42L61.9668 44.3867ZM61.952 44.4829L61.9521 44.5802L62.7585 45.5162L61.952 44.4829ZM61.9521 44.5802L61.9684 44.6804L62.7586 45.6134L61.9521 44.5802ZM58.0612 47.8853L57.7987 47.7022L58.8698 48.9166L58.0612 47.8853ZM61.9684 44.6804L62.0021 44.7854L62.7749 45.7135L61.9684 44.6804ZM53.1247 52.0266L52.3636 51.9253L53.9362 53.0555L53.1247 52.0266ZM62.0021 44.7854L62.0545 44.8972L62.8086 45.8185L62.0021 44.7854ZM62.0545 44.8972L62.1269 45.0177L62.8609 45.9303L62.0545 44.8972ZM58.3544 48.1109L58.0612 47.8853L59.1629 49.1421L58.3544 48.1109ZM62.1269 45.0177L62.2205 45.1488L62.9333 46.0507L62.1269 45.0177ZM62.2205 45.1488L62.3092 45.2636L63.0268 46.1817L62.2205 45.1488ZM53.8779 52.051L53.1247 52.0266L54.689 53.08L53.8779 52.051ZM58.6807 48.3834L58.3544 48.1109L59.489 49.4144L58.6807 48.3834ZM54.2942 52.0344L53.8779 52.051L55.1051 53.0634L54.2942 52.0344ZM55.8925 50.8803L55.8871 51.0532L56.7024 51.9099L55.8925 50.8803ZM54.6498 52.0021L54.2942 52.0344L55.4604 53.0312L54.6498 52.0021ZM59.0423 48.7068L58.6807 48.3834L59.8505 49.7377L59.0423 48.7068ZM55.8871 51.0532L55.8678 51.2135L56.697 52.0828L55.8871 51.0532ZM54.9492 51.9544L54.6498 52.0021L55.7597 52.9834L54.9492 51.9544ZM55.8678 51.2135L55.8299 51.3608L56.6777 52.243L55.8678 51.2135ZM55.1972 51.8915L54.9492 51.9544L56.0075 52.9206L55.1972 51.8915ZM55.8299 51.3608L55.7687 51.4947L56.6398 52.3901L55.8299 51.3608ZM55.3984 51.8138L55.1972 51.8915L56.2087 52.8429L55.3984 51.8138ZM55.7687 51.4947L55.6795 51.6151L56.5787 52.524L55.7687 51.4947ZM55.5577 51.7216L55.3984 51.8138L56.3678 52.7507L55.5577 51.7216ZM55.6795 51.6151L55.5577 51.7216L56.4896 52.6443L55.6795 51.6151ZM59.4415 49.0856L59.0423 48.7068L60.2494 50.1162L59.4415 49.0856ZM59.8879 49.5476L59.4415 49.0856L60.6956 50.578L59.8879 49.5476ZM60.276 49.9661L59.8879 49.5476L61.0834 50.9963L60.276 49.9661ZM60.6139 50.3418L60.276 49.9661L61.4212 51.3717L60.6139 50.3418ZM60.9098 50.675L60.6139 50.3418L61.7169 51.7048L60.9098 50.675ZM61.1719 50.9664L60.9098 50.675L61.9789 51.996L61.1719 50.9664ZM61.4084 51.2165L61.1719 50.9664L62.2152 52.246L61.4084 51.2165ZM61.6274 51.4258L61.4084 51.2165L62.4341 52.4552L61.6274 51.4258ZM65.2648 48.5135L65.4993 48.8142L66.0695 49.5446L65.2648 48.5135ZM61.8371 51.5949L61.6274 51.4258L62.6437 52.6243L61.8371 51.5949ZM44.7654 35.8589L45.5819 36.8974L45.4984 36.7822L44.7654 35.8589ZM44.8426 35.9921L45.659 37.0305L45.5819 36.8974L44.8426 35.9921ZM62.0457 51.7244L61.8371 51.5949L62.8522 52.7536L62.0457 51.7244ZM65.4993 48.8142L65.7151 49.1035L66.3038 49.8451L65.4993 48.8142ZM44.915 36.1438L45.7314 37.1821L45.659 37.0305L44.915 36.1438ZM62.2614 51.8147L62.0457 51.7244L63.0678 52.8439L62.2614 51.8147ZM44.9843 36.3145L45.8006 37.3527L45.7314 37.1821L44.9843 36.3145ZM65.7151 49.1035L65.9109 49.3809L66.5195 50.1343L65.7151 49.1035ZM62.4923 51.8665L62.2614 51.8147L63.2986 52.8956L62.4923 51.8665ZM45.0518 36.5047L45.8681 37.5428L45.8006 37.3527L45.0518 36.5047ZM62.7467 51.8802L62.4923 51.8665L63.5528 52.9093L62.7467 51.8802ZM65.9109 49.3809L66.0854 49.6459L66.7151 50.4115L65.9109 49.3809ZM66.0854 49.6459L66.2374 49.898L66.8896 50.6764L66.0854 49.6459ZM45.4155 37.5217L46.2316 38.5592L45.8681 37.5428L45.4155 37.5217ZM66.2374 49.898L66.3657 50.1367L67.0415 50.9283L66.2374 49.898ZM66.3657 50.1367L66.469 50.3614L67.1698 51.1668L66.3657 50.1367ZM65.5689 51.8262L62.7467 51.8802L66.3735 52.8554L65.5689 51.8262ZM66.469 50.3614L66.546 50.5717L67.273 51.3914L66.469 50.3614ZM66.546 50.5717L66.5909 50.7675L67.3499 51.6016L66.546 50.5717ZM66.5909 50.7675L66.6101 50.9468L67.3948 51.7973L66.5909 50.7675ZM45.8105 38.5055L46.6264 39.5425L46.2316 38.5592L45.8105 38.5055ZM66.6101 50.9468L66.6045 51.1097L67.414 51.9766L66.6101 50.9468ZM65.7619 51.8139L65.5689 51.8262L66.5663 52.8431L65.7619 51.8139ZM66.6045 51.1097L66.5749 51.2561L67.4084 52.1394L66.6045 51.1097ZM65.9373 51.7846L65.7619 51.8139L66.7416 52.8139L65.9373 51.7846ZM66.5749 51.2561L66.522 51.3859L67.3788 52.2857L66.5749 51.2561ZM66.0943 51.7384L65.9373 51.7846L66.8985 52.7677L66.0943 51.7384ZM66.522 51.3859L66.4467 51.4991L67.326 52.4154L66.522 51.3859ZM66.232 51.6754L66.0943 51.7384L67.0362 52.7048L66.232 51.6754ZM66.4467 51.4991L66.3498 51.5957L67.2507 52.5286L66.4467 51.4991ZM66.3498 51.5957L66.232 51.6754L67.1538 52.625L66.3498 51.5957ZM46.2289 39.4455L47.0446 40.482L46.6264 39.5425L46.2289 39.4455ZM49.3881 36.5662L50.202 37.6043L50.3245 37.7591L49.3881 36.5662ZM46.6626 40.3312L47.4781 41.3672L47.0446 40.482L46.6626 40.3312ZM47.1036 41.1518L47.9188 42.1874L47.4781 41.3672L47.1036 41.1518ZM54.9612 35.5337L55.7719 36.5724L55.7148 36.4784L54.9612 35.5337ZM55.0066 35.6437L55.8173 36.6824L55.7719 36.5724L55.0066 35.6437ZM47.5438 41.8969L48.3587 42.932L47.9188 42.1874L47.5438 41.8969ZM55.0407 35.77L55.8515 36.8086L55.8173 36.6824L55.0407 35.77ZM55.0644 35.9128L55.8751 36.9513L55.8515 36.8086L55.0644 35.9128ZM55.0781 36.0723L55.8888 37.1108L55.8751 36.9513L55.0781 36.0723ZM55.0825 36.2489L55.8932 37.2873L55.8888 37.1108L55.0825 36.2489ZM47.9751 42.5557L48.7899 43.5905L48.3587 42.932L47.9751 42.5557ZM48.3896 43.1177L49.2041 44.1522L48.7899 43.5905L48.3896 43.1177ZM45.0569 46.6783L45.8734 47.7108L46.5107 48.4615L45.0569 46.6783ZM55.0827 42.0149L55.8934 43.05L55.8932 37.2873L55.0827 42.0149ZM45.6946 47.4295L46.5107 48.4615L47.1791 49.1438L45.6946 47.4295ZM44.6819 35.7437L44.7654 35.8589L45.4984 36.7822L44.6819 35.7437ZM44.7654 35.8589L44.8426 35.9921L45.5819 36.8974L44.7654 35.8589ZM46.3633 48.1121L47.1791 49.1438L47.8741 49.7568L46.3633 48.1121ZM44.8426 35.9921L44.915 36.1438L45.659 37.0305L44.8426 35.9921ZM44.915 36.1438L44.9843 36.3145L45.7314 37.1821L44.915 36.1438ZM55.0879 42.1608L55.8987 43.1959L55.8934 43.05L55.0879 42.1608ZM44.9843 36.3145L45.0518 36.5047L45.8006 37.3527L44.9843 36.3145ZM55.1028 42.2905L55.9135 43.3255L55.8987 43.1959L55.1028 42.2905ZM55.1261 42.4046L55.9369 43.4395L55.9135 43.3255L55.1261 42.4046ZM55.1568 42.5037L55.9675 43.5386L55.9369 43.4395L55.1568 42.5037ZM55.1935 42.5885L56.0042 43.6233L55.9675 43.5386L55.1935 42.5885ZM55.2352 42.6597L56.0458 43.6945L56.0042 43.6233L55.2352 42.6597ZM47.0588 48.7254L47.8741 49.7568L48.5916 50.2994L47.0588 48.7254ZM45.0518 36.5047L45.4155 37.5217L45.8681 37.5428L45.0518 36.5047ZM55.2805 42.718L56.0912 43.7528L56.0458 43.6945L55.2805 42.718ZM65.2268 35.3882L66.0318 36.4272L65.9778 36.3268L65.2268 35.3882ZM65.2604 35.5008L66.0654 36.5397L66.0318 36.4272L65.2604 35.5008ZM65.2746 35.6247L66.0796 36.6636L66.0654 36.5397L65.2746 35.6247ZM65.2705 35.7588L66.0755 36.7976L66.0796 36.6636L65.2705 35.7588ZM65.2493 35.9021L66.0543 36.9408L66.0755 36.7976L65.2493 35.9021ZM47.7766 49.2683L48.5916 50.2994L49.3271 50.7708L47.7766 49.2683ZM65.2119 36.0536L66.0169 37.0922L66.0543 36.9408L65.2119 36.0536ZM45.4155 37.5217L45.8105 38.5055L46.2316 38.5592L45.4155 37.5217ZM65.062 36.5449L65.8671 37.5832L66.0169 37.0922L65.062 36.5449ZM64.8064 37.1468L65.6116 38.1848L65.8671 37.5832L64.8064 37.1468ZM48.5126 49.74L49.3271 50.7708L50.0764 51.17L48.5126 49.74ZM64.4676 37.8301L65.2731 38.8677L65.6116 38.1848L64.4676 37.8301ZM45.8105 38.5055L46.2289 39.4455L46.6264 39.5425L45.8105 38.5055ZM64.0683 38.5655L64.874 39.6027L65.2731 38.8677L64.0683 38.5655ZM49.2623 50.1394L50.0764 51.17L50.8351 51.4961L49.2623 50.1394ZM63.6312 39.3239L64.4371 40.3607L64.874 39.6027L63.6312 39.3239ZM49.5107 36.721L49.3881 36.5662L50.3245 37.7591L49.5107 36.721ZM63.1789 40.076L63.9851 41.1123L64.4371 40.3607L63.1789 40.076ZM55.3011 46.3589L56.1118 47.3917L56.1873 47.3413L55.3011 46.3589ZM55.2382 46.4246L56.0489 47.4573L56.1118 47.3917L55.2382 46.4246ZM55.3767 46.3085L56.1873 47.3413L56.2763 47.3046L55.3767 46.3085ZM55.187 46.5074L55.9978 47.5401L56.0489 47.4573L55.187 46.5074ZM55.4657 46.2718L56.2763 47.3046L56.3794 47.2798L55.4657 46.2718ZM55.147 46.609L55.9578 47.6416L55.9978 47.5401L55.147 46.609ZM55.5688 46.2469L56.3794 47.2798L56.4974 47.265L55.5688 46.2469ZM46.2289 39.4455L46.6626 40.3312L47.0446 40.482L46.2289 39.4455ZM62.7339 40.7925L63.5404 41.8284L63.9851 41.1123L62.7339 40.7925ZM55.1172 46.7312L55.928 47.7638L55.9578 47.6416L55.1172 46.7312ZM55.6869 46.2322L56.4974 47.265L56.6312 47.2587L55.6869 46.2322ZM50.0214 50.4657L50.8351 51.4961L51.5989 51.7482L50.0214 50.4657ZM55.8208 46.2259L56.6312 47.2587L56.7421 47.2618L55.8208 46.2259ZM55.0969 46.8757L55.9077 47.9082L55.928 47.7638L55.0969 46.8757ZM55.9318 46.229L56.7421 47.2618L56.8679 47.278L55.9318 46.229ZM55.0852 47.0443L55.8961 48.0767L55.9077 47.9082L55.0852 47.0443ZM62.3191 41.4442L63.1258 42.4798L63.5404 41.8284L62.3191 41.4442ZM56.0576 46.2452L56.8679 47.278L57.0107 47.3114L56.0576 46.2452ZM55.0815 47.2386L55.8924 48.2709L55.8961 48.0767L55.0815 47.2386ZM56.2005 46.2786L57.0107 47.3114L57.173 47.3663L56.2005 46.2786ZM61.9569 42.002L62.7638 43.0372L63.1258 42.4798L61.9569 42.002ZM56.3629 46.3336L57.173 47.3663L57.3568 47.447L56.3629 46.3336ZM61.6701 42.4364L62.4772 43.4714L62.7638 43.0372L61.6701 42.4364ZM50.7857 50.7179L51.5989 51.7482L52.3636 51.9253L50.7857 50.7179ZM56.5468 46.4142L57.3568 47.447L57.5646 47.5575L56.5468 46.4142ZM61.4813 42.7184L62.2885 43.7533L62.4772 43.4714L61.4813 42.7184ZM61.4131 42.8187L62.2203 43.8535L62.2885 43.7533L61.4131 42.8187ZM61.3426 42.9387L62.1499 43.9734L62.2203 43.8535L61.3426 42.9387ZM46.6626 40.3312L47.1036 41.1518L47.4781 41.3672L46.6626 40.3312ZM61.2808 43.0501L62.0881 44.0848L62.1499 43.9734L61.2808 43.0501ZM56.7548 46.5248L57.5646 47.5575L57.7987 47.7022L56.7548 46.5248ZM61.2288 43.1549L62.0361 44.1895L62.0881 44.0848L61.2288 43.1549ZM61.1879 43.2549L61.9952 44.2895L62.0361 44.1895L61.1879 43.2549ZM61.1594 43.3522L61.9668 44.3867L61.9952 44.2895L61.1594 43.3522ZM61.1446 43.4485L61.952 44.4829L61.9668 44.3867L61.1446 43.4485ZM61.1447 43.5458L61.9521 44.5802L61.952 44.4829L61.1447 43.5458ZM56.9889 46.6696L57.7987 47.7022L58.0612 47.8853L56.9889 46.6696ZM51.5507 50.8951L52.3636 51.9253L53.1247 52.0266L51.5507 50.8951ZM61.161 43.6461L61.9684 44.6804L61.9521 44.5802L61.161 43.6461ZM61.1948 43.7512L62.0021 44.7854L61.9684 44.6804L61.1948 43.7512ZM61.2472 43.863L62.0545 44.8972L62.0021 44.7854L61.2472 43.863ZM57.2516 46.8528L58.0612 47.8853L58.3544 48.1109L57.2516 46.8528ZM61.3196 43.9836L62.1269 45.0177L62.0545 44.8972L61.3196 43.9836ZM55.0816 49.8495L55.8925 50.8803L55.8924 48.2709L55.0816 49.8495ZM47.1036 41.1518L47.5438 41.8969L47.9188 42.1874L47.1036 41.1518ZM61.4133 44.1147L62.2205 45.1488L62.1269 45.0177L61.4133 44.1147ZM52.3122 50.9964L53.1247 52.0266L53.8779 52.051L52.3122 50.9964ZM54.904 35.4396L54.9612 35.5337L55.7148 36.4784L54.904 35.4396ZM57.545 47.0785L58.3544 48.1109L58.6807 48.3834L57.545 47.0785ZM61.502 44.2296L62.3092 45.2636L62.2205 45.1488L61.502 44.2296ZM54.9612 35.5337L55.0066 35.6437L55.7719 36.5724L54.9612 35.5337ZM55.0066 35.6437L55.0407 35.77L55.8173 36.6824L55.0066 35.6437ZM53.0659 51.0209L53.8779 52.051L54.2942 52.0344L53.0659 51.0209ZM55.0407 35.77L55.0644 35.9128L55.8515 36.8086L55.0407 35.77ZM55.0644 35.9128L55.0781 36.0723L55.8751 36.9513L55.0644 35.9128ZM57.8715 47.3511L58.6807 48.3834L59.0423 48.7068L57.8715 47.3511ZM53.4825 51.0043L54.2942 52.0344L54.6498 52.0021L53.4825 51.0043ZM55.0781 36.0723L55.0825 36.2489L55.8888 37.1108L55.0781 36.0723ZM55.0762 50.0225L55.8871 51.0532L55.8925 50.8803L55.0762 50.0225ZM53.8382 50.972L54.6498 52.0021L54.9492 51.9544L53.8382 50.972ZM47.5438 41.8969L47.9751 42.5557L48.3587 42.932L47.5438 41.8969ZM55.0569 50.1829L55.8678 51.2135L55.8871 51.0532L55.0569 50.1829ZM54.1378 50.9242L54.9492 51.9544L55.1972 51.8915L54.1378 50.9242ZM55.019 50.3302L55.8299 51.3608L55.8678 51.2135L55.019 50.3302ZM54.9578 50.4643L55.7687 51.4947L55.8299 51.3608L54.9578 50.4643ZM54.3859 50.8613L55.1972 51.8915L55.3984 51.8138L54.3859 50.8613ZM58.2333 47.6748L59.0423 48.7068L59.4415 49.0856L58.2333 47.6748ZM54.8685 50.5847L55.6795 51.6151L55.7687 51.4947L54.8685 50.5847ZM54.5873 50.7835L55.3984 51.8138L55.5577 51.7216L54.5873 50.7835ZM54.7466 50.6912L55.5577 51.7216L55.6795 51.6151L54.7466 50.6912ZM47.9751 42.5557L48.3896 43.1177L48.7899 43.5905L47.9751 42.5557ZM58.6327 48.0537L59.4415 49.0856L59.8879 49.5476L58.6327 48.0537Z" fill="#7895DE"/>
<path d="M40.2607 35.6446L40.1815 35.7172L40.119 35.7985L40.2607 35.6446ZM40.4764 35.5299L40.3585 35.5817L40.2607 35.6446L40.4764 35.5299ZM40.2607 35.6446L40.119 35.7985L40.0378 35.9823L40.2607 35.6446ZM40.7796 35.4641L40.4764 35.5299L40.2607 35.6446L40.7796 35.4641ZM40.119 35.7985L40.0717 35.8873L40.0378 35.9823L40.119 35.7985ZM40.7796 35.4641L40.6163 35.4903L40.4764 35.5299L40.7796 35.4641ZM40.0378 35.9823L40.0157 36.0823L40.0037 36.1862L40.0378 35.9823ZM40.2607 35.6446L40.0378 35.9823L40.0208 36.548L40.2607 35.6446Z" fill="#E4E9FF"/>
<path d="M59.0793 48.516L59.8879 49.5476L60.276 49.9661L59.0793 48.516Z" fill="#7895DE"/>
<path d="M40.0378 35.9823L40.0037 36.1863L40.0208 36.5481L40.0378 35.9823Z" fill="#E4E9FF"/>
<path d="M55.0825 36.2489L55.0827 42.0149L55.8932 37.2873L55.0825 36.2489Z" fill="#7895DE"/>
<path d="M40.0037 36.1862L40 36.2928L40.0208 36.548L40.0037 36.1862ZM44.1153 35.4196L40.7796 35.4641L40.2607 35.6446L44.1153 35.4196ZM43.7902 35.3981L40.9682 35.4525L40.7796 35.4641L43.7902 35.3981Z" fill="#E4E9FF"/>
<path d="M59.4677 48.9348L60.276 49.9662L60.6139 50.3418L59.4677 48.9348Z" fill="#7895DE"/>
<path d="M40.0208 36.5481L40.087 36.9232L40.2039 37.4119L40.0208 36.5481Z" fill="#E4E9FF"/>
<path d="M59.8057 49.3107L60.6139 50.3418L60.9098 50.6751L59.8057 49.3107Z" fill="#7895DE"/>
<path d="M44.1153 35.4196L43.7902 35.3981L40.7796 35.4641L44.1153 35.4196Z" fill="#E4E9FF"/>
<path d="M45.6946 47.4295L45.0569 46.6783L46.5107 48.4616L45.6946 47.4295Z" fill="#7895DE"/>
<path d="M40.0208 36.5481L40.2039 37.4119L40.6125 38.704L40.0208 36.5481Z" fill="#E4E9FF"/>
<path d="M60.1018 49.644L60.9098 50.675L61.1719 50.9664L60.1018 49.644Z" fill="#7895DE"/>
<path d="M44.915 36.1438L44.1153 35.4196L40.2607 35.6446L44.915 36.1438ZM40.2039 37.4118L40.3773 38.0075L40.6125 38.7039L40.2039 37.4118ZM44.1153 35.4196L43.9614 35.4016L43.7902 35.3981L44.1153 35.4196Z" fill="#E4E9FF"/>
<path d="M60.3641 49.9355L61.172 50.9664L61.4084 51.2165L60.3641 49.9355Z" fill="#7895DE"/>
<path d="M44.378 35.5009L44.2537 35.4526L44.1154 35.4197L44.378 35.5009ZM40.2607 35.6446L40.0208 36.5481L42.2824 42.3682L40.2607 35.6446ZM44.5905 35.646L44.378 35.5009L44.1154 35.4197L44.5905 35.646Z" fill="#E4E9FF"/>
<path d="M46.3634 48.1122L45.6946 47.4296L47.1791 49.1439L46.3634 48.1122ZM60.6007 50.1859L61.4084 51.2166L61.6274 51.4259L60.6007 50.1859Z" fill="#7895DE"/>
<path d="M44.5905 35.646L44.4897 35.5652L44.378 35.5009L44.5905 35.646ZM45.4155 37.5217L44.9151 36.1438L40.2607 35.6446L45.4155 37.5217ZM44.9151 36.1438L44.5905 35.646L44.1154 35.4197L44.9151 36.1438Z" fill="#E4E9FF"/>
<path d="M60.8198 50.3953L61.6275 51.4258L61.8372 51.595L60.8198 50.3953Z" fill="#7895DE"/>
<path d="M44.7654 35.8589L44.6819 35.7437L44.5905 35.646L44.7654 35.8589Z" fill="#E4E9FF"/>
<path d="M64.6939 47.7822L65.4993 48.8143L65.2649 48.5136L64.6939 47.7822Z" fill="#7895DE"/>
<path d="M44.915 36.1438L44.7654 35.8589L44.5905 35.646L44.915 36.1438Z" fill="#E4E9FF"/>
<path d="M61.0296 50.5645L61.8371 51.5949L62.0457 51.7244L61.0296 50.5645Z" fill="#7895DE"/>
<path d="M44.915 36.1438L44.8426 35.9921L44.7654 35.8589L44.915 36.1438Z" fill="#E4E9FF"/>
<path d="M61.2383 50.694L62.0457 51.7244L62.2614 51.8148L61.2383 50.694ZM64.9098 48.0717L65.7151 49.1036L65.4993 48.8143L64.9098 48.0717Z" fill="#7895DE"/>
<path d="M40.0208 36.5481L40.6125 38.704L42.2824 42.3682L40.0208 36.5481Z" fill="#E4E9FF"/>
<path d="M47.0588 48.7254L46.3633 48.1122L47.8741 49.7568L47.0588 48.7254ZM55.0827 42.0149L55.0879 42.1609L55.8934 43.0501L55.0827 42.0149ZM61.4541 50.7844L62.2614 51.8148L62.4923 51.8665L61.4541 50.7844Z" fill="#7895DE"/>
<path d="M45.8105 38.5056L45.4155 37.5218L40.2607 35.6447L45.8105 38.5056ZM45.0518 36.5048L44.9843 36.3146L44.9151 36.1439L45.0518 36.5048ZM40.6125 38.704L40.9151 39.4947L41.2906 40.3732L40.6125 38.704Z" fill="#E4E9FF"/>
<path d="M55.0879 42.1609L55.1028 42.2906L55.8987 43.196L55.0879 42.1609ZM65.1056 48.3492L65.9108 49.381L65.7151 49.1036L65.1056 48.3492ZM61.6852 50.8362L62.4923 51.8665L62.7467 51.8802L61.6852 50.8362ZM55.1028 42.2906L55.1261 42.4046L55.9135 43.3256L55.1028 42.2906ZM55.1261 42.4046L55.1568 42.5037L55.9369 43.4396L55.1261 42.4046ZM55.1568 42.5037L55.1935 42.5885L55.9675 43.5386L55.1568 42.5037Z" fill="#7895DE"/>
<path d="M45.4155 37.5217L45.0518 36.5047L44.915 36.1438L45.4155 37.5217Z" fill="#E4E9FF"/>
<path d="M55.1935 42.5885L55.2351 42.6597L56.0042 43.6234L55.1935 42.5885ZM65.2803 48.6143L66.0854 49.6459L65.9108 49.3809L65.2803 48.6143ZM55.2351 42.6597L55.2805 42.718L56.0458 43.6945L55.2351 42.6597Z" fill="#7895DE"/>
<path d="M46.2289 39.4456L45.8105 38.5056L40.2607 35.6447L46.2289 39.4456Z" fill="#E4E9FF"/>
<path d="M65.4324 48.8666L66.2375 49.8981L66.0854 49.646L65.4324 48.8666ZM47.7767 49.2684L47.0588 48.7255L48.5916 50.2994L47.7767 49.2684ZM61.9397 50.8499L62.7467 51.8802L65.569 51.8263L61.9397 50.8499ZM65.1729 35.2878L65.2269 35.3882L65.9779 36.3269L65.1729 35.2878ZM65.2269 35.3882L65.2604 35.5009L66.0319 36.4272L65.2269 35.3882ZM65.5608 49.1054L66.3658 50.1367L66.2375 49.8981L65.5608 49.1054Z" fill="#7895DE"/>
<path d="M40.6125 38.704L41.2906 40.3732L42.2824 42.3683L40.6125 38.704Z" fill="#E4E9FF"/>
<path d="M65.2604 35.5009L65.2746 35.6247L66.0654 36.5398L65.2604 35.5009ZM65.2746 35.6247L65.2705 35.7588L66.0796 36.6636L65.2746 35.6247ZM65.6641 49.3302L66.469 50.3614L66.3657 50.1367L65.6641 49.3302ZM65.2705 35.7588L65.2493 35.9021L66.0755 36.7976L65.2705 35.7588Z" fill="#7895DE"/>
<path d="M46.6626 40.3313L46.2289 39.4456L40.2607 35.6447L46.6626 40.3313Z" fill="#E4E9FF"/>
<path d="M65.2493 35.9022L65.2119 36.0537L66.0543 36.9409L65.2493 35.9022ZM65.7412 49.5407L66.546 50.5718L66.469 50.3615L65.7412 49.5407ZM65.2119 36.0537L65.0621 36.545L66.017 37.0923L65.2119 36.0537ZM48.5126 49.7401L47.7767 49.2684L49.3271 50.7709L48.5126 49.7401ZM65.7861 49.7366L66.5909 50.7676L66.546 50.5718L65.7861 49.7366ZM65.8053 49.916L66.6101 50.9469L66.5909 50.7676L65.8053 49.916ZM65.0621 36.545L64.8064 37.1469L65.8672 37.5833L65.0621 36.545Z" fill="#7895DE"/>
<path d="M47.1036 41.1519L46.6626 40.3313L40.2607 35.6447L47.1036 41.1519ZM41.2906 40.3732L41.7445 41.3332L42.2824 42.3683L41.2906 40.3732Z" fill="#E4E9FF"/>
<path d="M65.7997 50.079L66.6045 51.1098L66.6102 50.9469L65.7997 50.079ZM64.7635 50.7959L65.569 51.8263L65.7619 51.8139L64.7635 50.7959Z" fill="#7895DE"/>
<path d="M49.5378 35.3445L49.4536 35.3884L49.3782 35.4414L49.5378 35.3445ZM49.3782 35.4414L49.3118 35.5023L49.2547 35.5698L49.3782 35.4414ZM49.3782 35.4414L49.2547 35.5698L49.1698 35.7197L49.3782 35.4414ZM49.7308 35.2891L49.5378 35.3445L49.3782 35.4414L49.7308 35.2891ZM49.2547 35.5698L49.2073 35.6427L49.1698 35.7197L49.2547 35.5698ZM49.7308 35.2891L49.6302 35.311L49.5378 35.3445L49.7308 35.2891Z" fill="#E4E9FF"/>
<path d="M64.9566 50.7835L65.7619 51.8139L65.9373 51.7847L64.9566 50.7835ZM65.77 50.2255L66.5749 51.2562L66.6045 51.1098L65.77 50.2255Z" fill="#7895DE"/>
<path d="M49.1698 35.7197L49.1426 35.7996L49.1261 35.8811L49.1698 35.7197Z" fill="#E4E9FF"/>
<path d="M65.1321 50.7542L65.9373 51.7847L66.0943 51.7385L65.1321 50.7542ZM65.7171 50.3553L66.522 51.386L66.5749 51.2562L65.7171 50.3553Z" fill="#7895DE"/>
<path d="M49.3782 35.4414L49.1698 35.7197L49.1406 36.1279L49.3782 35.4414Z" fill="#E4E9FF"/>
<path d="M64.8064 37.1469L64.4677 37.8301L65.6117 38.1848L64.8064 37.1469ZM65.2892 50.708L66.0943 51.7385L66.2321 51.6755L65.2892 50.708ZM65.6418 50.4686L66.4467 51.4992L66.522 51.386L65.6418 50.4686Z" fill="#7895DE"/>
<path d="M49.1698 35.7197L49.1261 35.8811L49.1406 36.1279L49.1698 35.7197Z" fill="#E4E9FF"/>
<path d="M65.427 50.645L66.2321 51.6755L66.3498 51.5957L65.427 50.645ZM65.5448 50.5652L66.3498 51.5957L66.4467 51.4992L65.5448 50.5652Z" fill="#7895DE"/>
<path d="M49.1261 35.8811L49.1205 35.963L49.1406 36.1279L49.1261 35.8811Z" fill="#E4E9FF"/>
<path d="M49.2623 50.1395L48.5126 49.7401L50.0764 51.1701L49.2623 50.1395ZM64.4676 37.8302L64.0683 38.5656L65.2731 38.8678L64.4676 37.8302Z" fill="#7895DE"/>
<path d="M47.5438 41.897L47.1036 41.1519L40.2607 35.6447L47.5438 41.897ZM49.1406 36.128L49.1964 36.278L49.2811 36.4213L49.1406 36.128ZM49.1406 36.128L49.2811 36.4213L49.5107 36.7211L49.1406 36.128Z" fill="#E4E9FF"/>
<path d="M64.0684 38.5656L63.6312 39.3239L64.874 39.6027L64.0684 38.5656Z" fill="#7895DE"/>
<path d="M49.281 36.4212L49.3881 36.5662L49.5106 36.721L49.281 36.4212ZM49.1406 36.1279L49.5106 36.721L49.6421 36.8941L49.1406 36.1279ZM54.2763 35.1945L49.839 35.2801L49.7307 35.2891L54.2763 35.1945ZM54.544 35.2171L49.7307 35.2891L49.3782 35.4414L54.544 35.2171ZM49.1406 36.1279L49.6421 36.8941L49.7757 37.0936L49.1406 36.1279ZM54.544 35.2171L49.3782 35.4414L49.1406 36.1279L54.544 35.2171Z" fill="#E4E9FF"/>
<path d="M63.6312 39.324L63.1789 40.076L64.4371 40.3607L63.6312 39.324ZM50.0214 50.4657L49.2623 50.1395L50.8351 51.4962L50.0214 50.4657ZM55.3011 46.359L55.2382 46.4247L56.1118 47.3917L55.3011 46.359ZM55.3767 46.3086L55.3011 46.359L56.1873 47.3414L55.3767 46.3086ZM63.1789 40.076L62.7339 40.7926L63.9851 41.1124L63.1789 40.076ZM55.2382 46.4247L55.187 46.5075L56.0489 47.4574L55.2382 46.4247ZM55.4657 46.2719L55.3767 46.3086L56.2763 47.3047L55.4657 46.2719ZM55.5688 46.247L55.4657 46.2719L56.3794 47.2798L55.5688 46.247ZM55.187 46.5075L55.147 46.6091L55.9978 47.5401L55.187 46.5075ZM55.6869 46.2323L55.5688 46.247L56.4974 47.2651L55.6869 46.2323ZM55.147 46.6091L55.1172 46.7313L55.9577 47.6417L55.147 46.6091ZM55.8208 46.2259L55.6869 46.2323L56.6312 47.2588L55.8208 46.2259ZM55.1172 46.7313L55.0968 46.8758L55.928 47.7638L55.1172 46.7313Z" fill="#7895DE"/>
<path d="M54.544 35.2172L49.1406 36.128L49.7757 37.0937L54.544 35.2172Z" fill="#E4E9FF"/>
<path d="M55.9318 46.229L55.8208 46.2258L56.7421 47.2618L55.9318 46.229ZM62.734 40.7925L62.3191 41.4442L63.5404 41.8284L62.734 40.7925ZM55.0969 46.8757L55.0853 47.0443L55.9077 47.9082L55.0969 46.8757ZM56.0576 46.2451L55.9318 46.229L56.8679 47.278L56.0576 46.2451ZM50.7857 50.7179L50.0214 50.4657L51.599 51.7482L50.7857 50.7179ZM56.2006 46.2786L56.0576 46.2451L57.0107 47.3114L56.2006 46.2786ZM55.0853 47.0443L55.0816 47.2386L55.8961 48.0767L55.0853 47.0443ZM62.3191 41.4442L61.9569 42.0019L63.1258 42.4798L62.3191 41.4442Z" fill="#7895DE"/>
<path d="M54.544 35.2171L54.2764 35.1945L49.7308 35.2891L54.544 35.2171Z" fill="#E4E9FF"/>
<path d="M56.3629 46.3336L56.2006 46.2787L57.173 47.3664L56.3629 46.3336Z" fill="#7895DE"/>
<path d="M54.544 35.2172L49.7758 37.0937L49.9049 37.3281L54.544 35.2172Z" fill="#E4E9FF"/>
<path d="M61.9569 42.002L61.6701 42.4364L62.7638 43.0372L61.9569 42.002ZM56.5468 46.4142L56.3629 46.3335L57.3568 47.447L56.5468 46.4142Z" fill="#7895DE"/>
<path d="M54.544 35.2172L49.9048 37.3281L50.0227 37.6055L54.544 35.2172Z" fill="#E4E9FF"/>
<path d="M61.6701 42.4365L61.4813 42.7185L62.4772 43.4715L61.6701 42.4365Z" fill="#7895DE"/>
<path d="M42.2823 42.3682L42.9096 43.4719L43.6319 44.6378L42.2823 42.3682Z" fill="#E4E9FF"/>
<path d="M56.7548 46.5249L56.5468 46.4143L57.5646 47.5576L56.7548 46.5249ZM61.4813 42.7185L61.4131 42.8188L62.2885 43.7534L61.4813 42.7185ZM61.4131 42.8188L61.3426 42.9388L62.2203 43.8536L61.4131 42.8188ZM51.5507 50.8952L50.7856 50.718L52.3635 51.9254L51.5507 50.8952ZM61.3426 42.9388L61.2807 43.0502L62.1499 43.9735L61.3426 42.9388Z" fill="#7895DE"/>
<path d="M54.544 35.2172L50.0227 37.6055L50.1226 37.9344L54.544 35.2172Z" fill="#E4E9FF"/>
<path d="M61.2808 43.0502L61.2288 43.1549L62.088 44.0848L61.2808 43.0502ZM61.2288 43.1549L61.1879 43.255L62.0361 44.1896L61.2288 43.1549ZM56.9889 46.6696L56.7548 46.5249L57.7987 47.7022L56.9889 46.6696ZM61.1879 43.255L61.1594 43.3522L61.9952 44.2895L61.1879 43.255ZM55.0815 47.2387L55.0816 49.8495L55.8924 48.2709L55.0815 47.2387ZM61.1594 43.3522L61.1446 43.4485L61.9668 44.3867L61.1594 43.3522Z" fill="#7895DE"/>
<path d="M54.544 35.2172L50.1227 37.9344L50.198 38.323L54.544 35.2172Z" fill="#E4E9FF"/>
<path d="M61.1447 43.4485L61.1448 43.5458L61.952 44.4829L61.1447 43.4485ZM61.1448 43.5458L61.1611 43.6461L61.9522 44.5802L61.1448 43.5458ZM57.2516 46.8528L56.989 46.6696L58.0612 47.8853L57.2516 46.8528Z" fill="#7895DE"/>
<path d="M54.544 35.2171L54.418 35.1986L54.2764 35.1945L54.544 35.2171Z" fill="#E4E9FF"/>
<path d="M61.1611 43.6461L61.1948 43.7512L61.9684 44.6805L61.1611 43.6461Z" fill="#7895DE"/>
<path d="M54.544 35.2172L50.198 38.323L50.242 38.7796L54.544 35.2172Z" fill="#E4E9FF"/>
<path d="M52.3122 50.9965L51.5507 50.8952L53.1247 52.0266L52.3122 50.9965ZM61.1948 43.7512L61.2472 43.8631L62.0021 44.7855L61.1948 43.7512Z" fill="#7895DE"/>
<path d="M54.7515 35.2981L54.655 35.2502L54.544 35.2172L54.7515 35.2981Z" fill="#E4E9FF"/>
<path d="M61.2473 43.863L61.3197 43.9836L62.0546 44.8973L61.2473 43.863Z" fill="#7895DE"/>
<path d="M54.904 35.4396L54.7515 35.2981L54.544 35.2172L54.904 35.4396Z" fill="#E4E9FF"/>
<path d="M57.545 47.0785L57.2516 46.8528L58.3544 48.1109L57.545 47.0785Z" fill="#7895DE"/>
<path d="M54.904 35.4396L54.8343 35.3611L54.7515 35.2981L54.904 35.4396Z" fill="#E4E9FF"/>
<path d="M61.3196 43.9836L61.4133 44.1148L62.1269 45.0178L61.3196 43.9836Z" fill="#7895DE"/>
<path d="M55.0644 35.9128L54.904 35.4396L54.544 35.2172L55.0644 35.9128ZM40.2607 35.6446L42.2824 42.3682L53.4825 51.0043L40.2607 35.6446Z" fill="#E4E9FF"/>
<path d="M61.4133 44.1147L61.502 44.2296L62.2205 45.1488L61.4133 44.1147Z" fill="#7895DE"/>
<path d="M55.0066 35.6437L54.9612 35.5337L54.904 35.4396L55.0066 35.6437Z" fill="#E4E9FF"/>
<path d="M53.0659 51.0209L52.3123 50.9965L53.8779 52.051L53.0659 51.0209Z" fill="#7895DE"/>
<path d="M42.2823 42.3682L43.6319 44.6378L45.0569 46.6783L42.2823 42.3682ZM55.0644 35.9128L55.0065 35.6437L54.904 35.4396L55.0644 35.9128Z" fill="#E4E9FF"/>
<path d="M57.8715 47.3512L57.545 47.0786L58.6807 48.3834L57.8715 47.3512Z" fill="#7895DE"/>
<path d="M55.0644 35.9128L55.0408 35.7701L55.0066 35.6438L55.0644 35.9128Z" fill="#E4E9FF"/>
<path d="M53.4825 51.0044L53.0659 51.021L54.2942 52.0346L53.4825 51.0044Z" fill="#7895DE"/>
<path d="M55.0825 36.249L55.0781 36.0724L55.0644 35.9128L55.0825 36.249Z" fill="#E4E9FF"/>
<path d="M55.0816 49.8495L55.0762 50.0226L55.8925 50.8804L55.0816 49.8495ZM53.8382 50.972L53.4825 51.0044L54.6498 52.0022L53.8382 50.972ZM58.2333 47.6748L57.8714 47.3512L59.0423 48.7069L58.2333 47.6748ZM55.0762 50.0226L55.0569 50.1829L55.8871 51.0533L55.0762 50.0226Z" fill="#7895DE"/>
<path d="M54.544 35.2172L50.2419 38.7796L50.2418 43.0652L54.544 35.2172Z" fill="#E4E9FF"/>
<path d="M54.1378 50.9242L53.8383 50.972L54.9492 51.9544L54.1378 50.9242ZM55.057 50.1829L55.019 50.3302L55.8678 51.2135L55.057 50.1829ZM54.386 50.8613L54.1378 50.9242L55.1972 51.8915L54.386 50.8613ZM55.019 50.3302L54.9578 50.4643L55.8299 51.3608L55.019 50.3302Z" fill="#7895DE"/>
<path d="M47.5438 41.897L40.2607 35.6447L53.4825 51.0044L47.5438 41.897Z" fill="#E4E9FF"/>
<path d="M54.5873 50.7835L54.3859 50.8613L55.3984 51.8138L54.5873 50.7835ZM54.9577 50.4643L54.8685 50.5847L55.7687 51.4948L54.9577 50.4643ZM54.7466 50.6912L54.5873 50.7835L55.5576 51.7216L54.7466 50.6912ZM54.8685 50.5847L54.7466 50.6912L55.6795 51.6151L54.8685 50.5847ZM58.6327 48.0537L58.2333 47.6748L59.4415 49.0856L58.6327 48.0537Z" fill="#7895DE"/>
<path d="M43.6319 44.6379L44.4546 45.8596L45.057 46.6783L43.6319 44.6379ZM55.0827 42.0149L55.0644 35.9128L54.544 35.2172L55.0827 42.0149Z" fill="#E4E9FF"/>
<path d="M59.0793 48.516L58.6327 48.0537L59.8879 49.5476L59.0793 48.516Z" fill="#7895DE"/>
<path d="M54.544 35.2172L50.2418 43.0652L50.2383 43.2843L54.544 35.2172ZM54.544 35.2172L50.2383 43.2843L50.228 43.4736L54.544 35.2172ZM55.0827 42.0149L55.0825 36.2489L55.0644 35.9128L55.0827 42.0149ZM54.544 35.2172L50.228 43.4736L50.2106 43.6353L54.544 35.2172ZM54.544 35.2172L50.2106 43.6353L50.186 43.7713L54.544 35.2172ZM42.2823 42.3682L45.0569 46.6783L47.7766 49.2684L42.2823 42.3682ZM54.544 35.2172L50.186 43.7713L50.1541 43.8837L54.544 35.2172ZM54.544 35.2172L50.1541 43.8837L50.1149 43.9747L54.544 35.2172Z" fill="#E4E9FF"/>
<path d="M59.4676 48.9348L59.0793 48.516L60.276 49.9661L59.4676 48.9348Z" fill="#7895DE"/>
<path d="M55.0879 42.1609L54.544 35.2172L50.1149 43.9747L55.0879 42.1609Z" fill="#E4E9FF"/>
<path d="M59.8057 49.3106L59.4677 48.9348L60.6139 50.3418L59.8057 49.3106ZM60.1018 49.6441L59.8057 49.3106L60.9099 50.6751L60.1018 49.6441Z" fill="#7895DE"/>
<path d="M55.0879 42.1609L55.0827 42.0149L54.544 35.2172L55.0879 42.1609ZM60.822 35.2467L60.719 35.3198L60.6273 35.4017L60.822 35.2467ZM61.065 35.1315L60.822 35.2467L60.6273 35.4017L61.065 35.1315ZM60.6273 35.4017L60.5459 35.4912L60.474 35.5869L60.6273 35.4017ZM61.065 35.1315L60.937 35.1835L60.822 35.2467L61.065 35.1315ZM60.6273 35.4017L60.474 35.5869L60.3556 35.7925L60.6273 35.4017ZM60.474 35.5869L60.4109 35.6878L60.3556 35.7925L60.474 35.5869ZM61.3629 35.0658L61.2066 35.0919L61.065 35.1315L61.3629 35.0658ZM60.6273 35.4017L60.3556 35.7925L60.1915 36.1804L60.6273 35.4017ZM60.3556 35.7925L60.3073 35.9L60.2778 35.9729L60.3556 35.7925ZM45.0569 46.6784L45.6946 47.4296L46.3634 48.1122L45.0569 46.6784ZM60.3556 35.7925L60.2778 35.9729L60.1915 36.1804L60.3556 35.7925ZM60.6273 35.4017L60.1915 36.1804L60.0512 36.5055L60.6273 35.4017Z" fill="#E4E9FF"/>
<path d="M60.3641 49.9356L60.1018 49.644L61.1719 50.9664L60.3641 49.9356Z" fill="#7895DE"/>
<path d="M60.6273 35.4017L60.0512 36.5055L59.8597 36.9312L60.6273 35.4017ZM60.6273 35.4017L59.8597 36.9312L59.6201 37.4404L60.6273 35.4017Z" fill="#E4E9FF"/>
<path d="M60.6007 50.1858L60.3641 49.9355L61.4084 51.2165L60.6007 50.1858Z" fill="#7895DE"/>
<path d="M64.3591 35L61.065 35.1315L60.6273 35.4017L64.3591 35ZM64.3591 35L61.3629 35.0658L61.065 35.1315L64.3591 35ZM55.0879 42.1609L50.1149 43.9747L50.0681 44.0462L55.0879 42.1609ZM64.3591 35L61.5346 35.0545L61.3629 35.0658L64.3591 35ZM55.0879 42.1609L50.0681 44.0462L50.0138 44.1004L55.0879 42.1609ZM55.0879 42.1609L50.0138 44.1004L49.9516 44.1393L55.0879 42.1609ZM55.1028 42.2906L49.9516 44.1393L49.8816 44.1651L55.1028 42.2906ZM47.9751 42.5558L47.5438 41.8969L53.4825 51.0043L47.9751 42.5558Z" fill="#E4E9FF"/>
<path d="M60.8198 50.3952L60.6006 50.1858L61.6274 51.4258L60.8198 50.3952Z" fill="#7895DE"/>
<path d="M45.0569 46.6783L46.3634 48.1122L47.7767 49.2684L45.0569 46.6783Z" fill="#E4E9FF"/>
<path d="M64.4593 47.4813L64.6939 47.7822L65.2649 48.5136L64.4593 47.4813ZM61.0297 50.5645L60.8198 50.3953L61.8372 51.595L61.0297 50.5645Z" fill="#7895DE"/>
<path d="M55.1028 42.2906L55.0879 42.1609L49.9516 44.1394L55.1028 42.2906ZM48.3896 43.1178L47.9751 42.5558L53.4825 51.0043L48.3896 43.1178ZM55.1261 42.4046L55.1028 42.2906L49.8816 44.1651L55.1261 42.4046Z" fill="#E4E9FF"/>
<path d="M61.2383 50.694L61.0296 50.5645L62.0457 51.7244L61.2383 50.694Z" fill="#7895DE"/>
<path d="M55.1568 42.5038L55.1262 42.4047L49.8817 44.1651L55.1568 42.5038Z" fill="#E4E9FF"/>
<path d="M64.6939 47.7822L64.9098 48.0717L65.4993 48.8143L64.6939 47.7822Z" fill="#7895DE"/>
<path d="M55.1935 42.5885L55.1568 42.5037L49.8816 44.1651L55.1935 42.5885ZM65.2604 35.5009L64.3591 35L60.6272 35.4017L65.2604 35.5009ZM55.2351 42.6598L55.1935 42.5885L49.8816 44.1651L55.2351 42.6598ZM42.2823 42.3682L47.7766 49.2684L53.4825 51.0043L42.2823 42.3682ZM55.2805 42.718L55.2351 42.6598L49.8816 44.1651L55.2805 42.718Z" fill="#E4E9FF"/>
<path d="M61.4541 50.7843L61.2383 50.694L62.2614 51.8147L61.4541 50.7843Z" fill="#7895DE"/>
<path d="M55.3285 42.764L55.2805 42.718L49.8816 44.1651L55.3285 42.764ZM55.3777 42.7985L55.3285 42.764L49.8816 44.1651L55.3777 42.7985ZM48.7791 43.5723L48.3896 43.1177L53.4825 51.0043L48.7791 43.5723Z" fill="#E4E9FF"/>
<path d="M64.9098 48.0717L65.1057 48.3492L65.7151 49.1036L64.9098 48.0717ZM61.6852 50.8362L61.4542 50.7844L62.4924 51.8665L61.6852 50.8362Z" fill="#7895DE"/>
<path d="M49.7176 44.1853L49.4512 44.1167L56.2005 46.2787L49.7176 44.1853ZM49.8037 44.1797L49.7176 44.1853L56.2005 46.2787L49.8037 44.1797Z" fill="#E4E9FF"/>
<path d="M61.9397 50.8499L61.6852 50.8362L62.7467 51.8802L61.9397 50.8499Z" fill="#7895DE"/>
<path d="M46.3633 48.1122L47.0588 48.7255L47.7766 49.2684L46.3633 48.1122ZM49.8816 44.1651L49.8037 44.1797L56.2005 46.2787L49.8816 44.1651ZM64.7308 35.0292L64.5584 35.0054L64.3591 35L64.7308 35.0292ZM49.1357 43.9088L48.7791 43.5723L53.4825 51.0043L49.1357 43.9088Z" fill="#E4E9FF"/>
<path d="M65.1057 48.3492L65.2803 48.6144L65.9109 49.381L65.1057 48.3492Z" fill="#7895DE"/>
<path d="M64.9992 35.1279L64.7308 35.0292L64.3591 35L64.9992 35.1279ZM64.9992 35.1279L64.8774 35.0704L64.7308 35.0292L64.9992 35.1279ZM61.3427 42.9388L60.6273 35.4017L59.6201 37.4404L61.3427 42.9388ZM65.2604 35.5009L64.9992 35.1279L64.3591 35L65.2604 35.5009ZM49.4512 44.1167L49.1357 43.9088L53.4825 51.0043L49.4512 44.1167Z" fill="#E4E9FF"/>
<path d="M65.2803 48.6144L65.4324 48.8666L66.0854 49.646L65.2803 48.6144Z" fill="#7895DE"/>
<path d="M65.1728 35.2879L65.0973 35.2008L64.9992 35.1279L65.1728 35.2879ZM65.2604 35.5009L65.1728 35.2879L64.9992 35.1279L65.2604 35.5009ZM65.2604 35.5009L65.2268 35.3883L65.1728 35.2879L65.2604 35.5009Z" fill="#E4E9FF"/>
<path d="M65.4324 48.8666L65.5608 49.1054L66.2375 49.8981L65.4324 48.8666Z" fill="#7895DE"/>
<path d="M61.3427 42.9388L59.6201 37.4404L59.3351 38.0162L61.3427 42.9388ZM55.3778 42.7985L49.8817 44.1651L56.2006 46.2787L55.3778 42.7985ZM65.2706 35.7589L65.2746 35.6248L65.2604 35.5009L65.2706 35.7589ZM61.3427 42.9388L59.3351 38.0162L59.0078 38.6416L61.3427 42.9388ZM61.4131 42.8188L65.2604 35.5009L60.6273 35.4017L61.4131 42.8188Z" fill="#E4E9FF"/>
<path d="M65.5608 49.1053L65.6641 49.3302L66.3658 50.1367L65.5608 49.1053Z" fill="#7895DE"/>
<path d="M65.0621 36.5449L65.2706 35.7588L65.2604 35.5009L65.0621 36.5449ZM61.3427 42.9387L59.0078 38.6415L58.6409 39.2995L61.3427 42.9387Z" fill="#E4E9FF"/>
<path d="M64.7636 50.7959L61.9397 50.8499L65.569 51.8263L64.7636 50.7959ZM65.6641 49.3302L65.7412 49.5406L66.469 50.3614L65.6641 49.3302Z" fill="#7895DE"/>
<path d="M65.062 36.545L65.2493 35.9022L65.2705 35.7589L65.062 36.545ZM65.062 36.545L65.2119 36.0537L65.2493 35.9022L65.062 36.545ZM61.3426 42.9388L58.6409 39.2996L58.2375 39.9732L61.3426 42.9388Z" fill="#E4E9FF"/>
<path d="M65.7411 49.5406L65.7861 49.7365L66.546 50.5718L65.7411 49.5406Z" fill="#7895DE"/>
<path d="M49.4512 44.1167L55.3011 46.3589L55.3767 46.3086L49.4512 44.1167ZM49.4512 44.1167L55.2382 46.4246L55.3011 46.3589L49.4512 44.1167ZM49.4512 44.1167L55.3767 46.3086L55.4657 46.2718L49.4512 44.1167ZM49.4512 44.1167L55.187 46.5074L55.2382 46.4246L49.4512 44.1167ZM49.4512 44.1167L55.4657 46.2718L55.5688 46.247L49.4512 44.1167ZM49.4512 44.1167L55.147 46.6091L55.187 46.5074L49.4512 44.1167ZM49.4512 44.1167L55.5688 46.247L55.6869 46.2322L49.4512 44.1167ZM61.3426 42.9388L58.2375 39.9731L57.8004 40.6453L61.3426 42.9388ZM49.4512 44.1167L55.6869 46.2322L55.8208 46.2259L49.4512 44.1167Z" fill="#E4E9FF"/>
<path d="M65.7861 49.7365L65.8053 49.9159L66.5909 50.7675L65.7861 49.7365Z" fill="#7895DE"/>
<path d="M49.4512 44.1166L55.8208 46.2258L55.9318 46.229L49.4512 44.1166ZM49.4512 44.1166L55.9318 46.229L56.0576 46.2451L49.4512 44.1166ZM47.7767 49.2683L48.5126 49.7399L49.2623 50.1394L47.7767 49.2683ZM61.3427 42.9387L57.8004 40.6453L57.3326 41.299L61.3427 42.9387ZM49.4512 44.1166L56.0576 46.2451L56.2006 46.2786L49.4512 44.1166Z" fill="#E4E9FF"/>
<path d="M65.8053 49.916L65.7997 50.079L66.6102 50.9469L65.8053 49.916ZM64.9566 50.7836L64.7635 50.7959L65.7619 51.814L64.9566 50.7836Z" fill="#7895DE"/>
<path d="M61.3426 42.9387L57.3325 41.2991L56.8368 41.9174L61.3426 42.9387ZM61.3426 42.9387L55.6104 42.8326L55.5219 42.839L61.3426 42.9387ZM56.9889 46.6696L55.4272 42.822L55.3777 42.7985L56.9889 46.6696Z" fill="#E4E9FF"/>
<path d="M65.7997 50.079L65.77 50.2254L66.6045 51.1098L65.7997 50.079Z" fill="#7895DE"/>
<path d="M64.4676 37.8301L64.8064 37.1468L65.062 36.5449L64.4676 37.8301ZM61.3426 42.9387L55.698 42.8165L55.6104 42.8326L61.3426 42.9387ZM56.9889 46.6696L55.4756 42.8353L55.4272 42.822L56.9889 46.6696ZM61.3426 42.9387L56.8368 41.9174L56.6798 42.0812L61.3426 42.9387ZM61.3426 42.9387L55.786 42.7896L55.698 42.8165L61.3426 42.9387ZM56.9889 46.6696L55.5219 42.839L55.4756 42.8353L56.9889 46.6696ZM61.3426 42.9387L56.6798 42.0812L56.5362 42.2261L61.3426 42.9387Z" fill="#E4E9FF"/>
<path d="M65.1321 50.7543L64.9566 50.7836L65.9373 51.7847L65.1321 50.7543Z" fill="#7895DE"/>
<path d="M61.3426 42.9387L55.8759 42.7511L55.786 42.7896L61.3426 42.9387ZM61.3426 42.9387L56.5362 42.2261L56.4046 42.3531L61.3426 42.9387ZM61.3426 42.9387L55.9692 42.7001L55.8759 42.7511L61.3426 42.9387ZM61.3426 42.9387L56.4046 42.3531L56.2835 42.4631L61.3426 42.9387ZM61.3426 42.9387L56.0673 42.6357L55.9692 42.7001L61.3426 42.9387ZM61.3426 42.9387L56.2835 42.4631L56.1716 42.557L61.3426 42.9387Z" fill="#E4E9FF"/>
<path d="M65.77 50.2255L65.7171 50.3554L66.5749 51.2562L65.77 50.2255Z" fill="#7895DE"/>
<path d="M61.3427 42.9388L56.1716 42.5571L56.0673 42.6358L61.3427 42.9388Z" fill="#E4E9FF"/>
<path d="M65.2891 50.708L65.1321 50.7542L66.0943 51.7385L65.2891 50.708ZM65.7171 50.3553L65.6418 50.4686L66.522 51.386L65.7171 50.3553ZM65.427 50.645L65.2891 50.708L66.232 51.6755L65.427 50.645ZM65.6418 50.4686L65.5448 50.5652L66.4467 51.4992L65.6418 50.4686ZM65.5448 50.5652L65.427 50.645L66.3498 51.5957L65.5448 50.5652Z" fill="#7895DE"/>
<path d="M61.9569 42.002L65.0621 36.545L65.2604 35.5009L61.9569 42.002ZM61.3427 42.9388L61.4131 42.8188L60.6273 35.4017L61.3427 42.9388ZM63.6312 39.324L64.4676 37.8302L65.0621 36.545L63.6312 39.324ZM49.4512 44.1167L53.4825 51.0044L55.147 46.6091L49.4512 44.1167ZM47.7767 49.2684L49.2623 50.1395L50.7857 50.718L47.7767 49.2684ZM63.6312 39.324L64.0684 38.5656L64.4676 37.8302L63.6312 39.324ZM55.3778 42.7985L56.2006 46.2787L56.3629 46.3336L55.3778 42.7985ZM61.9569 42.002L63.6312 39.324L65.0621 36.545L61.9569 42.002ZM56.3629 46.3336L56.5469 46.4143L55.3778 42.7985L56.3629 46.3336ZM56.5469 46.4143L56.7548 46.5249L55.3778 42.7985L56.5469 46.4143ZM61.4131 42.8188L61.9569 42.002L65.2604 35.5009L61.4131 42.8188ZM56.7548 46.5249L56.9889 46.6697L55.3778 42.7985L56.7548 46.5249ZM56.9889 46.6697L61.3427 42.9388L55.5219 42.839L56.9889 46.6697ZM62.734 40.7926L63.1789 40.0761L63.6312 39.324L62.734 40.7926ZM49.2623 50.1395L50.0214 50.4658L50.7857 50.718L49.2623 50.1395ZM61.9569 42.002L62.734 40.7926L63.6312 39.324L61.9569 42.002ZM47.7767 49.2684L50.7857 50.718L53.4825 51.0044L47.7767 49.2684ZM61.9569 42.002L62.3191 41.4443L62.734 40.7926L61.9569 42.002ZM61.4813 42.7185L61.6701 42.4365L61.9569 42.002L61.4813 42.7185ZM61.4131 42.8188L61.4813 42.7185L61.9569 42.002L61.4131 42.8188ZM53.4825 51.0044L55.1172 46.7313L55.147 46.6091L53.4825 51.0044ZM53.4825 51.0044L55.0969 46.8758L55.1172 46.7313L53.4825 51.0044ZM53.4825 51.0044L55.0853 47.0444L55.0969 46.8758L53.4825 51.0044ZM50.7857 50.718L51.5507 50.8952L52.3123 50.9965L50.7857 50.718ZM55.019 50.3303L55.0816 47.2387L55.0853 47.0444L55.019 50.3303ZM56.9889 46.6697L57.2516 46.8529L61.3427 42.9388L56.9889 46.6697ZM57.2516 46.8529L57.545 47.0786L61.3427 42.9388L57.2516 46.8529ZM58.2333 47.6749L61.2808 43.0502L61.3427 42.9388L58.2333 47.6749ZM50.7857 50.718L52.3123 50.9965L53.4825 51.0044L50.7857 50.718ZM57.545 47.0786L57.8715 47.3512L61.3427 42.9388L57.545 47.0786ZM58.6327 48.0538L61.2288 43.155L61.2808 43.0502L58.6327 48.0538ZM58.6327 48.0538L61.1879 43.255L61.2288 43.155L58.6327 48.0538ZM53.4825 51.0044L55.019 50.3303L55.0853 47.0444L53.4825 51.0044ZM55.0763 50.0226L55.0817 49.8496L55.0816 47.2387L55.0763 50.0226ZM55.019 50.3303L55.0763 50.0226L55.0816 47.2387L55.019 50.3303ZM57.8715 47.3512L58.2333 47.6749L61.3427 42.9388L57.8715 47.3512ZM52.3123 50.9965L53.066 51.0209L53.4825 51.0044L52.3123 50.9965ZM59.4676 48.9348L61.1595 43.3522L61.1879 43.255L59.4676 48.9348ZM59.4676 48.9348L61.1447 43.4486L61.1595 43.3522L59.4676 48.9348ZM59.4676 48.9348L61.1448 43.5459L61.1447 43.4486L59.4676 48.9348ZM58.2333 47.6749L58.6327 48.0538L61.2808 43.0502L58.2333 47.6749ZM59.4676 48.9348L61.1611 43.6461L61.1448 43.5459L59.4676 48.9348ZM59.4676 48.9348L61.1948 43.7513L61.1611 43.6461L59.4676 48.9348ZM59.4676 48.9348L61.2472 43.8631L61.1948 43.7513L59.4676 48.9348ZM53.4825 51.0044L53.8382 50.9721L54.1378 50.9243L53.4825 51.0044ZM59.4676 48.9348L61.3197 43.9837L61.2472 43.8631L59.4676 48.9348ZM53.4825 51.0044L54.1378 50.9243L54.5873 50.7836L53.4825 51.0044ZM59.4676 48.9348L61.4133 44.1148L61.3197 43.9837L59.4676 48.9348ZM53.4825 51.0044L54.5873 50.7836L55.019 50.3303L53.4825 51.0044ZM55.019 50.3303L55.0569 50.183L55.0763 50.0226L55.019 50.3303ZM58.6327 48.0538L59.0794 48.5161L61.1879 43.255L58.6327 48.0538ZM59.4676 48.9348L61.502 44.2297L61.4133 44.1148L59.4676 48.9348ZM54.1378 50.9243L54.386 50.8614L54.5873 50.7836L54.1378 50.9243ZM54.8685 50.5848L54.9578 50.4644L55.019 50.3303L54.8685 50.5848ZM54.5873 50.7836L54.8685 50.5848L55.019 50.3303L54.5873 50.7836ZM59.4676 48.9348L61.6158 44.3604L61.502 44.2297L59.4676 48.9348ZM54.5873 50.7836L54.7466 50.6913L54.8685 50.5848L54.5873 50.7836ZM62.4375 45.1932L62.2512 45.0082L62.0723 44.8308L62.4375 45.1932ZM62.8186 45.5794L62.0723 44.8308L61.9045 44.6626L62.8186 45.5794ZM59.0794 48.5161L59.4676 48.9348L61.1879 43.255L59.0794 48.5161ZM62.8186 45.5794L62.4375 45.1932L62.0723 44.8308L62.8186 45.5794ZM62.8186 45.5794L62.6278 45.3842L62.4375 45.1932L62.8186 45.5794ZM64.4593 47.4814L61.7511 44.5052L61.6158 44.3604L64.4593 47.4814ZM64.4593 47.4814L61.9045 44.6626L61.7511 44.5052L64.4593 47.4814ZM63.1875 45.9761L63.0063 45.7773L62.8186 45.5794L63.1875 45.9761ZM64.4593 47.4814L62.8186 45.5794L61.9045 44.6626L64.4593 47.4814ZM63.3587 46.1744L63.1875 45.9761L62.8186 45.5794L63.3587 46.1744ZM59.4676 48.9348L64.4593 47.4814L61.6158 44.3604L59.4676 48.9348ZM64.4593 47.4814L63.3587 46.1744L62.8186 45.5794L64.4593 47.4814ZM63.9389 46.8476L63.6556 46.5157L63.3587 46.1744L63.9389 46.8476ZM59.4676 48.9348L59.8057 49.3107L64.4593 47.4814L59.4676 48.9348ZM59.8057 49.3107L60.1018 49.6441L60.3641 49.9356L59.8057 49.3107ZM64.4593 47.4814L63.9389 46.8476L63.3587 46.1744L64.4593 47.4814ZM59.8057 49.3107L60.3641 49.9356L61.2384 50.6941L59.8057 49.3107ZM64.4593 47.4814L64.2072 47.1697L63.9389 46.8476L64.4593 47.4814ZM60.3641 49.9356L60.6007 50.1859L60.8198 50.3953L60.3641 49.9356ZM60.3641 49.9356L60.8198 50.3953L61.2384 50.6941L60.3641 49.9356ZM60.8198 50.3953L61.0296 50.5645L61.2384 50.6941L60.8198 50.3953ZM64.9098 48.0717L64.6939 47.7822L64.4593 47.4814L64.9098 48.0717ZM59.8057 49.3107L65.427 50.645L64.4593 47.4814L59.8057 49.3107ZM65.2803 48.6144L64.9098 48.0717L64.4593 47.4814L65.2803 48.6144ZM59.8057 49.3107L61.2384 50.6941L65.427 50.645L59.8057 49.3107ZM61.2384 50.6941L61.4542 50.7844L61.6852 50.8362L61.2384 50.6941ZM65.2803 48.6144L65.1057 48.3492L64.9098 48.0717L65.2803 48.6144ZM65.7412 49.5406L65.2803 48.6144L64.4593 47.4814L65.7412 49.5406ZM61.2384 50.6941L61.6852 50.8362L64.7635 50.7959L61.2384 50.6941ZM61.6852 50.8362L61.9397 50.8499L64.7635 50.7959L61.6852 50.8362ZM65.5608 49.1054L65.4324 48.8666L65.2803 48.6144L65.5608 49.1054ZM65.427 50.645L65.7412 49.5406L64.4593 47.4814L65.427 50.645ZM65.7412 49.5406L65.5608 49.1054L65.2803 48.6144L65.7412 49.5406ZM61.2384 50.6941L64.7635 50.7959L65.427 50.645L61.2384 50.6941ZM65.7412 49.5406L65.6641 49.3303L65.5608 49.1054L65.7412 49.5406ZM65.8053 49.916L65.7861 49.7365L65.7412 49.5406L65.8053 49.916ZM65.77 50.2255L65.8053 49.916L65.7412 49.5406L65.77 50.2255ZM65.427 50.645L65.77 50.2255L65.7412 49.5406L65.427 50.645ZM65.77 50.2255L65.7997 50.079L65.8053 49.916L65.77 50.2255ZM64.7635 50.7959L64.9566 50.7836L65.1321 50.7543L64.7635 50.7959ZM64.7635 50.7959L65.1321 50.7543L65.427 50.645L64.7635 50.7959ZM65.6418 50.4686L65.7171 50.3554L65.77 50.2255L65.6418 50.4686ZM65.1321 50.7543L65.2892 50.7081L65.427 50.645L65.1321 50.7543ZM65.427 50.645L65.6418 50.4686L65.77 50.2255L65.427 50.645ZM65.427 50.645L65.5448 50.5652L65.6418 50.4686L65.427 50.645Z" fill="#E4E9FF"/>
</g>
<defs>
<filter id="filter0_ddd_0_3313" x="0" y="0" width="118.217" height="99.1078" filterUnits="userSpaceOnUse" color-interpolation-filters="sRGB">
<feFlood flood-opacity="0" result="BackgroundImageFix"/>
<feColorMatrix in="SourceAlpha" type="matrix" values="0 0 0 0 0 0 0 0 0 0 0 0 0 0 0 0 0 0 127 0" result="hardAlpha"/>
<feOffset dx="10" dy="5"/>
<feGaussianBlur stdDeviation="5"/>
<feColorMatrix type="matrix" values="0 0 0 0 0.192157 0 0 0 0 0.341176 0 0 0 0 0.72549 0 0 0 1 0"/>
<feBlend mode="normal" in2="BackgroundImageFix" result="effect1_dropShadow_0_3313"/>
<feColorMatrix in="SourceAlpha" type="matrix" values="0 0 0 0 0 0 0 0 0 0 0 0 0 0 0 0 0 0 127 0" result="hardAlpha"/>
<feOffset dx="20" dy="15"/>
<feGaussianBlur stdDeviation="15"/>
<feColorMatrix type="matrix" values="0 0 0 0 0.219608 0 0 0 0 0.364706 0 0 0 0 0.737255 0 0 0 1 0"/>
<feBlend mode="normal" in2="effect1_dropShadow_0_3313" result="effect2_dropShadow_0_3313"/>
<feColorMatrix in="SourceAlpha" type="matrix" values="0 0 0 0 0 0 0 0 0 0 0 0 0 0 0 0 0 0 127 0" result="hardAlpha"/>
<feOffset dx="-10" dy="-5"/>
<feGaussianBlur stdDeviation="15"/>
<feColorMatrix type="matrix" values="0 0 0 0 1 0 0 0 0 1 0 0 0 0 1 0 0 0 0.2 0"/>
<feBlend mode="normal" in2="effect2_dropShadow_0_3313" result="effect3_dropShadow_0_3313"/>
<feBlend mode="normal" in="SourceGraphic" in2="effect3_dropShadow_0_3313" result="shape"/>
</filter>
</defs>
</svg>
